<?xml version="1.0" standalone="no"?>
<!DOCTYPE svg PUBLIC "-//W3C//DTD SVG 20010904//EN"
 "http://www.w3.org/TR/2001/REC-SVG-20010904/DTD/svg10.dtd">
<svg version="1.0" xmlns="http://www.w3.org/2000/svg"
 width="861.000000pt" height="861.000000pt" viewBox="0 0 861.000000 861.000000"
 preserveAspectRatio="xMidYMid meet">
<metadata>
Created by potrace 1.14, written by Peter Selinger 2001-2017
</metadata>
<g transform="translate(0.000000,861.000000) scale(0.100000,-0.100000)"
fill="#000000" stroke="none">
<path d="M4409 7734 c-15 -29 -39 -39 -52 -22 -6 9 -7 8 -3 -4 3 -10 3 -25 -1
-33 -5 -14 -8 -14 -27 2 -19 17 -20 17 -7 0 12 -15 10 -20 -13 -42 -14 -13
-26 -30 -26 -37 -1 -8 -7 -5 -17 7 -13 16 -15 17 -10 3 4 -10 1 -18 -5 -18 -6
0 -9 -3 -5 -6 11 -11 -23 -36 -40 -30 -14 6 -14 4 -2 -11 12 -15 12 -16 -4
-10 -12 5 -17 3 -15 -5 7 -20 -24 -49 -38 -37 -9 8 -11 5 -7 -10 4 -16 1 -21
-13 -21 -9 0 -15 -3 -12 -6 3 -3 -17 -26 -45 -52 -84 -79 -95 -91 -88 -98 3
-4 0 -4 -6 0 -8 4 -13 2 -13 -5 0 -8 -4 -8 -15 1 -13 11 -14 10 -9 -4 8 -20
-31 -63 -39 -43 -3 7 -6 1 -6 -12 -1 -15 -6 -21 -15 -18 -8 3 -13 -1 -12 -11
0 -10 -6 -16 -16 -16 -9 1 -14 -4 -12 -11 3 -7 0 -16 -7 -21 -7 -4 -10 -3 -5
4 3 6 2 14 -4 17 -6 4 -10 3 -9 -2 5 -32 -2 -44 -23 -38 -17 5 -19 4 -8 -4 12
-8 12 -13 -4 -30 -20 -22 -42 -29 -30 -9 5 7 3 8 -5 4 -7 -5 -11 -13 -9 -20 2
-6 -16 -30 -39 -52 -38 -37 -45 -40 -54 -25 -8 12 -8 11 -3 -9 6 -22 5 -23
-10 -11 -14 12 -16 12 -10 -4 6 -14 4 -16 -6 -10 -8 5 -11 4 -7 -3 9 -14 -3
-43 -14 -36 -5 3 -9 -1 -10 -8 0 -7 -4 -4 -9 7 -8 19 -9 19 -9 -2 -1 -12 -12
-33 -24 -47 -19 -20 -26 -23 -36 -13 -10 9 -11 8 -5 -7 4 -11 2 -21 -7 -27
-20 -12 -31 -11 -23 3 4 7 3 8 -5 4 -8 -6 -9 -12 -2 -20 11 -13 5 -26 -11 -26
-5 0 -6 5 -2 12 5 7 3 8 -5 4 -7 -5 -10 -14 -7 -22 3 -8 -1 -14 -9 -14 -8 0
-15 -7 -15 -15 0 -16 -24 -16 -50 0 -13 8 -13 7 -1 -8 7 -9 17 -14 22 -11 5 3
6 -2 3 -11 -5 -13 -9 -13 -22 -3 -13 11 -14 11 -8 0 5 -8 -5 -26 -26 -50 -18
-20 -36 -37 -38 -37 -15 -2 -48 -40 -43 -49 3 -6 3 -8 -1 -5 -4 4 -38 -25 -76
-63 -38 -39 -73 -67 -79 -64 -7 4 -8 1 -5 -8 4 -11 0 -16 -11 -16 -10 0 -13
-5 -9 -12 4 -7 3 -8 -4 -4 -7 4 -12 3 -12 -2 0 -15 -77 -88 -88 -84 -6 2 -14
-2 -18 -9 -5 -8 -3 -10 7 -4 10 6 10 3 -2 -9 -8 -9 -26 -18 -39 -21 -13 -2
-28 -10 -34 -16 -8 -8 -5 -8 12 0 33 17 27 4 -20 -42 -23 -23 -39 -36 -35 -29
5 6 4 12 -2 12 -6 0 -11 -7 -11 -15 0 -21 -54 -72 -70 -67 -9 3 -11 -1 -6 -13
4 -12 2 -16 -8 -12 -10 4 -13 1 -9 -9 3 -8 2 -14 -3 -12 -5 2 -9 1 -9 -2 0 -8
-89 -90 -98 -90 -5 0 -5 -5 -1 -12 4 -7 3 -8 -4 -4 -7 4 -20 2 -29 -4 -17 -11
-17 -11 0 -6 11 3 15 2 12 -4 -3 -6 -13 -10 -21 -10 -8 0 -13 -5 -12 -12 2 -7
-4 -12 -12 -13 -8 0 -15 -6 -15 -14 0 -8 -7 -16 -15 -18 -13 -4 -13 -3 0 6 10
7 11 11 2 11 -7 0 -4 8 8 20 11 11 20 26 19 33 0 6 -5 2 -11 -10 -6 -13 -17
-23 -24 -23 -9 0 -12 -10 -10 -29 3 -31 -18 -37 -35 -10 -12 19 -11 2 1 -22 8
-13 7 -19 0 -19 -6 0 -9 -4 -6 -9 11 -17 -27 -22 -44 -6 -14 12 -20 13 -26 4
-4 -7 -3 -10 3 -6 6 4 19 -3 29 -15 11 -12 14 -18 7 -15 -7 4 -14 -1 -18 -13
-3 -11 -10 -20 -14 -20 -4 0 -16 -7 -27 -16 -10 -8 -13 -12 -5 -8 9 5 12 3 7
-5 -4 -6 -12 -9 -17 -6 -5 4 -9 3 -9 -2 0 -4 -32 -41 -71 -82 l-72 -73 84 -80
c46 -44 182 -175 302 -291 121 -117 296 -286 389 -377 94 -91 208 -201 253
-245 46 -44 161 -155 256 -247 96 -91 226 -217 290 -280 64 -62 201 -194 303
-293 l187 -180 -2 -238 c-1 -131 -6 -240 -11 -243 -5 -3 -5 -10 -2 -16 5 -7 2
-8 -5 -4 -7 5 -10 11 -7 14 3 3 -4 11 -17 17 -16 9 -26 9 -36 1 -12 -9 -13 -8
-6 4 11 18 15 34 19 74 3 27 2 28 -11 10 -8 -10 -16 -18 -18 -16 -3 1 -11 2
-17 1 -7 0 -3 -5 10 -11 23 -11 30 -28 11 -28 -5 0 -7 -5 -3 -12 4 -6 -4 -3
-18 8 -17 13 -22 21 -14 26 10 7 -4 12 -25 10 -4 -1 -6 6 -5 15 0 8 -7 17 -17
19 -22 3 -36 14 -18 14 7 0 9 5 6 10 -4 6 -11 8 -16 5 -5 -4 -6 2 -2 12 6 16
5 17 -13 3 -15 -11 -16 -11 -6 0 17 20 15 35 -3 20 -19 -16 -20 -3 -1 16 13
12 15 11 21 -6 3 -11 11 -20 16 -20 6 0 7 -5 3 -12 -4 -7 -3 -8 5 -4 6 4 10 3
9 -2 -2 -6 0 -9 3 -9 13 4 37 -25 32 -39 -3 -8 -1 -14 3 -14 13 1 44 26 44 35
0 4 -6 2 -14 -4 -9 -7 -17 -8 -20 -2 -3 5 0 12 6 14 10 4 10 6 0 6 -7 1 -11 5
-7 10 6 11 -31 35 -43 27 -5 -3 -16 6 -27 20 -10 13 -29 36 -42 50 -12 14 -23
30 -23 35 0 6 -4 7 -10 4 -5 -3 -11 4 -11 17 -1 17 -3 18 -6 5 -2 -9 -8 -15
-13 -12 -5 3 -7 12 -4 19 7 18 -20 38 -41 30 -13 -5 -14 -9 -3 -16 9 -6 5 -7
-11 -3 -17 5 -22 4 -16 -5 5 -9 4 -11 -4 -6 -6 4 -9 11 -6 16 5 8 -16 28 -61
57 -18 12 -18 12 1 6 17 -6 18 -5 7 10 -8 8 -19 14 -25 11 -7 -2 -18 9 -25 26
-8 16 -18 30 -23 30 -6 0 -7 -6 -3 -12 4 -8 3 -10 -2 -5 -5 5 -9 12 -10 15 -2
19 -17 41 -24 37 -10 -6 -45 33 -37 42 4 3 7 0 7 -8 0 -12 2 -11 11 1 9 13 10
12 5 -2 -3 -10 -2 -17 3 -15 5 1 24 -15 44 -35 19 -21 37 -34 40 -30 2 4 2 1
1 -5 -2 -7 1 -13 7 -13 6 0 8 -4 5 -8 -3 -5 1 -9 9 -9 8 0 12 4 9 9 -3 4 2 8
10 8 9 0 16 5 16 10 0 7 -6 7 -19 1 -15 -9 -20 -7 -24 10 -3 12 -10 18 -16 14
-6 -3 -14 1 -17 9 -3 9 -10 13 -15 10 -5 -3 -9 -1 -9 4 0 6 -15 27 -34 48 -24
27 -31 41 -23 47 7 4 -4 5 -23 2 -41 -7 -46 -11 -25 -18 8 -4 15 -2 15 4 0 5
6 4 14 -3 12 -11 12 -14 -2 -22 -10 -6 -17 -5 -20 2 -2 7 -11 12 -19 12 -10 0
-13 6 -9 16 4 12 2 15 -9 11 -8 -4 -17 -1 -21 5 -4 7 -3 8 4 4 7 -4 12 -1 12
9 0 9 -4 14 -9 10 -5 -3 -12 -1 -16 5 -4 6 -11 8 -16 4 -5 -3 -9 -2 -8 3 1 4
1 15 -1 23 -1 11 -4 10 -11 -5 -9 -20 -9 -20 -6 1 6 30 -13 54 -43 54 -11 0
-9 28 3 46 4 7 0 17 -8 24 -8 7 -12 16 -9 21 3 5 0 9 -5 9 -6 0 -11 -5 -11
-11 0 -5 -5 -7 -10 -4 -8 5 -7 11 1 21 8 10 8 14 0 14 -6 0 -11 -4 -11 -9 0
-5 -8 -8 -17 -6 -10 2 -20 4 -23 4 -3 1 2 6 10 11 13 8 11 11 -7 16 -13 4 -23
9 -23 13 0 11 -40 51 -50 51 -6 0 -10 -5 -10 -11 0 -5 4 -8 8 -5 15 9 67 -59
68 -87 0 -14 -4 -23 -8 -20 -5 2 -7 10 -5 16 2 7 0 20 -5 30 -7 14 -13 15 -31
7 -20 -10 -20 -10 -4 3 18 15 24 33 8 22 -5 -3 -19 7 -30 21 -15 19 -21 22
-21 10 0 -9 -4 -16 -10 -16 -5 0 -7 6 -4 13 5 14 -24 45 -35 39 -3 -2 -7 1 -9
6 -1 5 4 12 13 16 11 4 14 2 9 -6 -5 -7 -3 -8 6 -3 8 5 11 4 6 -3 -7 -12 32
-8 43 4 3 4 -2 4 -12 1 -14 -5 -16 -2 -13 18 3 15 1 23 -5 20 -5 -4 -7 -11 -4
-16 13 -20 -11 -7 -32 18 -18 20 -20 29 -11 35 10 7 9 8 -2 7 -29 -3 -41 1
-35 11 3 6 -1 10 -9 10 -8 0 -22 18 -32 40 -10 22 -21 35 -25 29 -4 -7 -9 -5
-13 6 -3 9 -10 13 -16 10 -5 -3 -10 -1 -10 4 0 11 15 15 35 11 5 -1 7 2 2 6
-10 10 -48 13 -42 3 3 -4 -2 -9 -9 -12 -10 -4 -14 0 -11 13 4 18 -17 22 -32 5
-4 -4 -2 -5 6 0 10 6 12 4 6 -5 -5 -9 -4 -11 3 -6 8 5 10 1 5 -10 -5 -13 -3
-16 10 -11 10 4 20 0 25 -11 11 -20 5 -42 -10 -42 -6 0 -5 7 3 16 12 15 11 16
-11 11 -14 -4 -20 -4 -13 -1 13 6 -26 51 -40 46 -5 -1 -5 3 -1 9 5 9 2 10 -10
6 -14 -6 -15 -3 -6 14 9 16 8 26 -4 43 -9 15 -11 27 -5 33 6 6 4 10 -5 10 -8
0 -13 -4 -10 -9 3 -4 1 -8 -4 -8 -17 0 -22 13 -9 28 9 13 9 14 0 8 -7 -4 -13
-3 -13 1 0 5 6 15 13 22 9 11 9 12 0 7 -7 -4 -18 -16 -24 -28 -8 -15 -8 -19 0
-13 6 3 10 3 9 -2 -4 -13 22 -54 31 -48 10 6 22 -20 14 -29 -4 -3 -11 -6 -17
-6 -6 0 -4 5 4 10 13 9 13 10 0 11 -8 1 -22 1 -30 0 -10 0 -11 1 -3 5 10 4 10
11 2 25 -5 11 -15 16 -21 13 -6 -4 -16 0 -22 8 -6 8 -15 15 -21 16 -5 1 -11
10 -13 22 -2 11 -7 18 -12 15 -5 -3 -11 4 -15 15 -3 11 -13 20 -21 20 -8 0
-14 4 -14 9 0 6 9 9 19 8 11 0 17 -5 14 -11 -3 -5 -1 -6 5 -2 8 5 10 2 6 -8
-6 -14 6 -21 29 -17 4 1 4 -11 1 -25 -5 -19 -4 -25 5 -20 6 4 9 12 6 17 -11
16 7 9 21 -8 9 -12 13 -13 14 -5 0 7 -16 27 -36 44 -26 23 -32 33 -22 39 11 7
11 9 0 9 -7 0 -11 4 -8 9 3 5 -1 11 -9 14 -9 4 -12 1 -9 -7 3 -8 1 -17 -5 -21
-6 -3 -11 1 -11 9 0 9 -5 16 -11 16 -5 0 -8 -3 -5 -8 2 -4 -3 -16 -11 -27 -13
-17 -15 -17 -10 -2 5 13 0 20 -19 27 -14 6 -22 15 -19 21 4 6 -2 19 -14 30
-12 12 -21 15 -21 8 0 -7 -3 -9 -6 -6 -4 4 -2 12 3 19 16 21 11 42 -13 61 -16
12 -25 14 -30 5 -4 -7 -3 -8 5 -4 7 5 10 2 9 -6 -2 -7 2 -12 9 -11 18 4 22
-21 7 -42 -8 -10 -14 -14 -14 -9 0 6 6 16 13 23 10 11 9 13 -4 9 -8 -3 -26 1
-40 8 l-24 15 25 -7 c22 -6 23 -5 12 9 -8 9 -20 13 -28 10 -17 -6 -19 8 -3 24
8 8 6 19 -5 39 -8 16 -16 22 -16 14 0 -9 -6 -6 -14 9 -11 20 -14 21 -19 7 -5
-11 -3 -15 5 -10 7 4 8 3 4 -4 -13 -21 -23 -13 -23 17 0 22 4 28 16 23 9 -3
13 -2 9 2 -3 4 -12 8 -20 10 -7 1 -19 5 -26 10 -7 4 -16 5 -19 2 -4 -3 -1 -6
6 -6 7 0 10 -4 6 -9 -3 -6 2 -14 11 -19 13 -7 14 -13 5 -28 -11 -18 -11 -18
-9 1 2 13 -2 19 -12 17 -8 -2 -12 0 -8 3 4 4 3 16 -3 27 -8 15 -13 17 -25 7
-10 -8 -14 -8 -14 0 0 6 5 11 11 11 5 0 8 4 5 9 -4 5 -17 8 -31 7 -13 -2 -22
1 -19 6 3 5 12 7 20 4 8 -3 14 -1 14 5 0 6 9 1 20 -12 11 -14 19 -18 20 -11 0
7 4 11 9 8 5 -3 12 1 15 9 5 13 2 14 -15 4 -11 -6 -24 -7 -27 -3 -4 4 -1 9 6
11 6 3 12 9 12 15 0 7 -4 7 -12 1 -7 -6 -24 -9 -38 -7 -14 3 -31 5 -37 6 -9 1
-10 5 -2 15 13 15 23 18 15 4 -3 -5 1 -11 9 -15 8 -3 17 -1 20 5 4 5 11 7 16
4 5 -4 9 -1 9 4 0 15 -13 14 -29 -1 -11 -11 -12 -8 -6 12 3 14 3 20 -2 15 -17
-22 -78 -2 -68 23 3 8 0 19 -6 23 -6 4 -8 12 -4 19 6 9 12 6 21 -11 7 -13 13
-20 14 -16 0 5 -5 17 -11 28 -8 15 -14 17 -23 10 -9 -8 -19 -5 -35 10 -18 17
-25 19 -34 9 -9 -10 -9 -11 2 -5 10 6 12 4 6 -5 -6 -9 -4 -11 5 -5 9 5 11 4 6
-3 -5 -8 -1 -10 11 -6 14 4 15 3 4 -4 -8 -6 -9 -12 -3 -16 6 -3 12 -1 14 6 3
7 7 5 11 -6 4 -9 3 -15 -2 -11 -5 3 -12 1 -16 -5 -4 -6 -11 -8 -16 -4 -5 3 -7
9 -5 13 3 4 -6 18 -19 29 -14 12 -25 19 -25 14 -1 -4 -9 3 -19 15 -10 12 -21
20 -23 18 -3 -3 -13 5 -24 17 -10 12 -13 18 -5 13 9 -5 12 -4 8 3 -4 5 -15 9
-25 8 -16 -3 -17 -26 -20 -292 l-3 -290 223 -216 c123 -118 255 -246 293 -283
93 -89 502 -485 626 -605 133 -130 485 -470 573 -553 39 -38 179 -173 311
-301 314 -305 317 -307 322 -303 6 6 15 85 15 134 1 33 4 40 16 35 9 -3 13 -1
9 5 -4 6 -1 14 5 17 7 3 4 4 -7 1 -16 -4 -21 0 -23 21 -1 15 2 23 8 19 6 -4 8
-10 6 -14 -3 -4 1 -8 8 -8 7 0 13 6 13 13 0 7 -3 11 -7 9 -12 -8 -9 59 3 74 9
12 9 13 -1 7 -9 -6 -11 -1 -8 18 3 15 1 24 -5 21 -5 -4 -7 -11 -4 -16 4 -5 2
-9 -3 -9 -5 0 -9 17 -9 38 0 20 2 29 4 20 2 -10 12 -18 21 -17 11 0 12 2 5 6
-7 2 -13 11 -13 19 0 8 -5 14 -11 14 -5 0 -7 5 -4 10 5 8 11 7 21 -1 10 -8 14
-8 14 0 0 10 -13 15 -32 12 -4 0 -6 17 -4 39 3 26 1 38 -6 33 -6 -3 -8 -1 -5
5 4 5 17 8 30 6 l22 -5 -22 12 -23 12 22 18 c11 11 17 19 12 19 -6 0 -14 -4
-20 -10 -6 -6 -10 6 -10 38 -1 26 1 39 3 30 3 -10 12 -18 21 -17 11 0 12 2 5
6 -7 2 -13 11 -13 19 0 8 -4 14 -9 14 -5 0 -8 22 -7 50 2 30 -1 47 -7 43 -6
-3 -7 -1 -4 5 4 5 17 8 30 6 l22 -5 -22 12 -23 12 22 18 c11 11 17 19 12 19
-6 0 -15 -5 -21 -11 -8 -8 -10 6 -9 50 2 37 -1 58 -7 54 -6 -3 -7 -1 -4 5 4 5
17 8 30 6 l22 -5 -22 12 -23 12 22 18 c11 11 17 19 12 19 -6 0 -15 -5 -21 -11
-8 -8 -10 6 -9 50 2 37 -1 58 -7 54 -6 -3 -7 -1 -4 5 4 5 17 8 30 6 l22 -5
-22 12 -23 12 22 18 c11 11 17 19 12 19 -6 0 -15 -5 -21 -11 -8 -8 -10 6 -9
50 2 37 -1 58 -7 54 -6 -3 -7 -1 -4 5 4 5 17 8 30 6 l22 -5 -22 12 -23 12 22
18 c11 11 17 19 12 19 -6 0 -16 -6 -23 -12 -11 -11 -13 -10 -8 3 3 9 1 21 -5
27 -6 6 -6 12 3 17 7 5 10 4 5 -3 -3 -6 -2 -13 4 -17 6 -3 10 3 10 15 0 17 4
21 18 16 15 -5 15 -5 2 6 -20 16 -24 66 -8 86 11 13 11 14 0 8 -9 -6 -11 -1
-8 18 3 15 1 24 -5 21 -5 -4 -7 -11 -4 -16 4 -5 2 -9 -3 -9 -5 0 -9 17 -9 38
0 20 2 29 4 20 2 -10 12 -18 21 -17 11 0 12 2 5 6 -7 2 -13 11 -13 19 0 8 -5
14 -11 14 -5 0 -7 5 -4 10 5 8 11 7 21 -1 10 -8 14 -8 14 0 0 10 -13 15 -32
12 -4 0 -6 17 -4 39 3 26 1 38 -6 33 -6 -3 -8 -1 -5 5 4 5 17 8 30 6 l22 -5
-22 12 -23 12 22 18 c11 11 17 19 12 19 -6 0 -16 -6 -23 -12 -11 -11 -13 -10
-7 5 3 10 6 21 6 23 0 3 4 3 9 -1 5 -3 13 0 17 6 4 7 3 9 -4 5 -16 -10 -20 18
-4 30 12 9 12 13 2 19 -9 6 -11 4 -5 -5 5 -8 3 -11 -5 -8 -7 2 -15 14 -17 27
-2 15 1 20 9 15 7 -4 8 -3 4 4 -4 6 -13 9 -20 6 -8 -3 -21 4 -29 16 -9 12 -20
19 -26 16 -19 -12 -53 13 -46 35 4 11 2 19 -5 19 -7 0 -10 8 -7 19 3 13 0 18
-8 15 -7 -3 -16 0 -20 5 -3 6 -11 9 -16 6 -5 -4 -9 -1 -9 4 0 6 5 11 10 11 6
0 10 5 10 11 0 8 -4 8 -14 0 -11 -9 -15 -9 -18 0 -3 9 -9 9 -24 1 -10 -6 -13
-12 -6 -12 17 0 15 -17 -2 -17 -15 0 -16 14 -2 36 12 19 16 62 6 56 -5 -3 -7
-13 -4 -23 3 -9 -13 2 -36 26 -22 23 -47 40 -53 36 -7 -3 -3 2 8 12 17 14 17
16 2 11 -13 -5 -20 0 -27 19 -9 23 -12 24 -27 13 -15 -12 -16 -12 -10 3 4 12
2 15 -9 11 -9 -3 -14 0 -12 7 2 6 -6 17 -17 23 -31 19 -45 40 -39 62 6 19 6
19 -8 1 -14 -18 -15 -18 -22 5 -4 14 -9 19 -13 11 -2 -6 -9 -9 -14 -6 -6 4 -6
11 1 19 13 16 4 39 -11 30 -5 -4 -9 2 -10 12 0 16 -1 16 -8 -1 -5 -14 -10 -16
-15 -8 -4 7 -5 16 -1 21 3 5 0 13 -6 17 -8 4 -9 3 -5 -4 9 -14 -4 -15 -24 -2
-13 9 -13 10 0 10 12 1 11 3 -3 11 -10 6 -14 15 -10 22 5 9 2 8 -9 0 -8 -7
-18 -10 -21 -6 -4 3 1 12 10 18 15 11 14 12 -10 10 -24 -3 -32 4 -28 27 0 4
-7 4 -16 1 -11 -4 -14 -3 -9 5 4 7 2 12 -4 12 -6 0 -8 5 -4 12 5 7 3 8 -5 4
-8 -5 -14 0 -18 13 -3 12 -10 21 -15 21 -5 0 -21 12 -35 26 -20 20 -28 23 -37
13 -8 -9 -8 -10 3 -4 10 6 12 4 6 -5 -6 -9 -4 -11 5 -5 9 6 11 4 5 -5 -5 -9
-4 -11 4 -6 7 5 10 2 9 -5 -2 -7 4 -13 12 -14 8 0 16 -4 17 -8 1 -5 10 -15 20
-23 10 -7 14 -14 8 -14 -5 -1 -18 -3 -27 -5 -10 -2 -18 1 -18 7 0 6 8 7 18 4
10 -4 7 1 -8 13 -13 11 -28 17 -33 14 -5 -3 -3 -9 4 -14 10 -6 10 -9 2 -9 -16
0 -26 17 -13 25 14 8 -39 65 -55 59 -11 -5 -29 30 -26 49 1 5 -3 6 -8 2 -6 -3
-23 8 -39 24 -23 25 -31 28 -43 18 -7 -7 -5 -2 5 11 18 21 10 32 -10 12 -6 -6
-15 -6 -24 0 -11 7 -11 10 -2 10 7 0 10 5 7 10 -4 6 -11 8 -16 5 -5 -4 -6 2
-2 12 6 16 5 17 -13 3 -15 -11 -16 -11 -6 0 17 20 15 35 -3 20 -19 -16 -20 -3
-1 16 13 12 15 11 21 -6 3 -11 11 -20 16 -20 13 0 11 9 -7 27 -8 9 -13 22 -10
29 3 8 2 14 -3 14 -5 0 -11 -9 -14 -20 -4 -14 -10 -18 -23 -13 -13 5 -15 3 -9
-7 5 -8 4 -11 -3 -6 -6 4 -9 13 -5 21 3 8 1 15 -5 15 -6 0 -12 -5 -14 -12 -3
-7 -7 -5 -11 6 -4 9 -3 15 2 11 5 -3 12 1 15 7 5 11 7 11 12 0 3 -6 11 -9 16
-6 6 4 8 2 4 -4 -3 -6 -2 -13 3 -17 6 -3 8 3 6 15 -2 11 1 20 7 20 6 0 3 9 -7
20 -10 11 -25 19 -34 18 -9 -2 -15 3 -13 10 1 6 -2 12 -8 12 -5 0 -10 -4 -10
-10 0 -18 -18 -11 -25 10 -3 11 -11 20 -17 20 -7 0 -7 -5 1 -14 8 -10 8 -16
-2 -24 -10 -8 -13 -6 -14 10 -2 26 -7 30 -35 32 -13 1 -23 7 -23 16 0 8 -4 18
-10 22 -6 5 -5 12 4 20 11 11 13 11 6 -1 -6 -10 -4 -12 5 -6 9 6 11 4 5 -5 -6
-9 -4 -11 5 -5 9 6 11 4 5 -5 -6 -9 -4 -11 5 -5 9 6 11 4 5 -5 -6 -9 -4 -11 5
-5 9 6 11 4 5 -5 -5 -9 -4 -11 3 -6 7 4 12 3 12 -3 0 -6 8 -7 17 -4 13 5 13 8
4 11 -22 7 -50 35 -45 44 3 4 0 16 -6 25 -9 15 -10 14 -4 -6 l6 -24 -25 19
c-14 11 -22 23 -19 28 3 5 0 6 -7 2 -6 -4 -14 0 -17 8 -3 9 -10 13 -15 10 -5
-3 -9 2 -9 11 0 9 5 13 10 10 6 -3 10 -1 10 5 0 7 -8 9 -22 4 -21 -6 -22 -5
-8 11 12 15 12 17 1 10 -11 -6 -13 -4 -8 9 6 14 4 15 -15 5 -18 -10 -20 -9
-15 4 4 11 2 14 -7 11 -8 -3 -23 7 -35 22 -18 22 -24 25 -34 14 -10 -10 -9
-11 2 -5 10 6 12 4 6 -5 -6 -9 -4 -11 5 -5 9 6 11 4 5 -5 -6 -9 -4 -11 5 -5 9
6 11 4 5 -5 -6 -9 -4 -11 5 -5 9 6 11 4 5 -5 -6 -9 -4 -11 5 -5 9 6 11 4 5 -5
-6 -9 -4 -11 5 -5 8 5 11 4 6 -3 -4 -7 1 -10 14 -7 13 3 18 0 14 -7 -5 -7 -2
-8 6 -3 8 5 11 4 7 -2 -4 -6 4 -22 18 -37 13 -14 19 -26 12 -26 -8 0 -7 -4 3
-9 8 -6 18 -7 24 -4 5 3 6 1 2 -5 -5 -8 -1 -10 11 -6 15 5 15 4 -1 -7 -15 -9
-21 -9 -24 -1 -2 7 -11 12 -19 12 -10 0 -13 6 -9 16 5 12 1 14 -17 10 -12 -3
-16 -3 -9 0 6 3 12 13 12 22 0 13 -2 14 -9 4 -7 -11 -9 -11 -14 2 -4 9 -12 15
-19 14 -7 -2 -13 3 -14 10 -3 26 -5 27 -15 12 -8 -12 -9 -11 -7 5 2 15 -2 19
-17 18 -11 -1 -14 0 -8 3 9 4 3 18 -19 44 -17 22 -35 37 -40 34 -5 -3 -1 -12
8 -18 14 -11 15 -14 3 -21 -8 -5 -11 -5 -7 0 5 5 -1 14 -12 22 -11 8 -17 20
-14 28 4 8 2 15 -4 15 -6 0 -12 -5 -14 -12 -3 -7 -7 -4 -12 7 -4 11 -4 16 0
12 4 -4 13 1 21 11 8 9 12 12 9 6 -3 -7 6 -20 20 -29 15 -9 24 -12 20 -7 -3 6
-2 13 3 16 5 3 11 -1 14 -8 3 -8 2 -16 -3 -18 -5 -2 -3 -11 4 -20 11 -15 13
-15 26 5 12 21 12 21 -5 7 -16 -13 -18 -13 -13 0 3 8 1 23 -4 33 -7 15 -12 16
-24 6 -17 -14 -19 2 -1 21 10 12 9 12 -5 2 -11 -9 -18 -10 -23 -2 -3 5 -1 10
5 10 6 0 8 5 4 11 -4 8 -9 7 -15 -2 -7 -11 -9 -11 -9 1 0 13 -1 13 -10 0 -5
-8 -10 -12 -11 -7 -1 4 -3 12 -4 17 -1 6 -3 15 -4 21 0 5 -4 8 -8 6 -5 -3 -14
1 -21 9 -7 8 -8 14 -2 14 5 0 10 5 10 11 0 8 -5 8 -15 -1 -11 -9 -12 -16 -5
-25 5 -6 6 -16 2 -20 -4 -5 -2 -6 3 -2 6 3 16 2 23 -2 8 -4 5 -11 -9 -20 -16
-9 -19 -10 -13 0 5 9 2 10 -10 6 -11 -5 -15 -3 -10 5 4 6 -1 17 -11 25 -11 7
-13 13 -7 13 20 0 13 16 -7 17 -15 1 -18 -3 -14 -15 6 -14 5 -15 -9 -2 -9 8
-12 17 -7 18 5 2 7 8 4 12 -3 5 0 12 6 16 8 5 9 3 4 -6 -5 -9 -4 -11 3 -6 7 4
12 3 12 -3 0 -17 33 -5 36 14 2 13 0 15 -9 6 -18 -18 -31 -13 -16 7 12 15 12
16 -2 5 -12 -10 -18 -10 -28 0 -9 9 -13 7 -17 -11 -4 -12 -10 -22 -16 -22 -5
0 -4 9 2 20 8 15 7 26 -2 43 -7 12 -11 25 -10 29 1 4 -6 4 -15 1 -9 -4 -14 -2
-11 3 3 5 -6 18 -20 28 -15 12 -22 14 -17 5 8 -12 6 -12 -8 0 -9 7 -14 17 -12
22 7 10 37 0 47 -15 5 -8 8 -7 8 1 0 7 -8 17 -17 22 -16 10 -14 15 22 48 22
21 39 42 37 47 -2 5 6 6 18 3 12 -3 18 -1 14 5 -8 13 337 349 349 341 6 -3 7
-1 4 4 -8 13 18 37 31 29 6 -3 9 2 8 12 0 9 5 16 12 14 8 -1 11 1 8 6 -8 14
32 42 51 36 14 -5 15 -4 4 4 -12 9 -11 13 4 29 10 10 22 18 26 18 4 0 11 4 16
9 5 6 2 6 -7 1 -13 -8 -13 -7 -1 9 8 9 20 15 28 12 8 -3 11 -1 8 4 -3 6 -1 10
6 10 7 0 10 3 7 6 -4 3 25 36 64 72 38 37 99 98 136 135 38 39 72 65 80 62 7
-2 10 -1 7 5 -7 11 35 61 45 55 4 -3 10 5 13 16 3 12 10 18 15 15 6 -3 13 1
16 10 3 8 10 12 16 9 6 -4 7 1 3 11 -5 14 -3 16 11 11 9 -4 15 -3 12 1 -8 13
44 63 56 56 6 -4 8 -3 5 2 -5 8 133 154 145 154 4 0 3 -366 -1 -482 0 -27 -6
-48 -12 -48 -5 0 -7 5 -3 12 5 7 3 8 -6 3 -10 -6 -9 -11 6 -23 18 -13 17 -14
-11 -8 -16 4 -25 3 -20 -1 16 -13 16 -31 -1 -37 -10 -4 -13 -2 -8 7 4 6 -2 4
-13 -6 -11 -9 -23 -14 -27 -10 -4 5 -7 3 -6 -2 4 -18 -12 -55 -21 -49 -5 3 -7
9 -4 14 3 5 1 11 -4 15 -10 6 -7 -27 4 -45 3 -6 2 -10 -3 -10 -5 0 -22 -12
-37 -27 -16 -16 -25 -22 -21 -15 4 6 2 12 -3 12 -6 0 -11 -8 -11 -17 0 -10
-18 -35 -40 -55 -37 -36 -58 -49 -46 -30 3 5 -2 9 -10 9 -10 0 -11 -4 -4 -11
5 -5 10 -14 10 -20 0 -5 -3 -7 -6 -3 -8 8 -33 -16 -27 -25 2 -5 0 -8 -6 -8 -5
0 -14 7 -19 16 -8 15 -10 15 -15 0 -4 -9 -2 -15 5 -13 6 1 13 -4 15 -11 4 -9
-3 -11 -21 -8 -15 3 -24 1 -21 -5 4 -5 11 -7 16 -4 5 3 6 -1 3 -9 -4 -12 -11
-13 -24 -6 -22 12 -43 -9 -34 -34 3 -9 1 -16 -6 -16 -6 0 -8 -5 -4 -12 5 -7 3
-8 -5 -4 -7 5 -10 15 -7 25 5 14 4 14 -7 -1 -8 -10 -17 -15 -20 -11 -4 3 -7 1
-7 -6 0 -8 7 -11 15 -7 19 7 20 -8 1 -23 -11 -9 -15 -9 -19 1 -4 11 -6 10 -6
0 -1 -8 -6 -10 -13 -6 -7 4 -10 4 -6 -1 4 -4 0 -14 -10 -22 -15 -13 -15 -13 5
-4 33 17 38 13 12 -8 -18 -14 -27 -16 -37 -9 -9 8 -11 7 -6 -5 7 -20 -22 -54
-29 -34 -3 6 -6 1 -6 -12 -1 -15 -6 -21 -15 -18 -8 3 -13 -1 -12 -11 1 -11 -7
-17 -21 -17 -12 0 -26 -5 -30 -9 -4 -5 -2 -6 5 -2 7 5 12 1 12 -9 0 -11 -5
-15 -16 -11 -9 4 -13 2 -8 -5 4 -6 -9 -26 -29 -44 -22 -20 -38 -29 -41 -22 -2
7 -5 2 -5 -11 -1 -19 -5 -22 -23 -18 -13 3 -17 3 -10 0 17 -8 15 -21 -4 -28
-10 -4 -13 -2 -8 6 5 7 3 8 -5 4 -7 -5 -10 -15 -7 -23 4 -11 2 -13 -9 -10 -8
4 -17 1 -21 -5 -4 -7 -3 -8 4 -4 23 14 11 -4 -29 -43 -22 -23 -37 -46 -34 -51
10 -16 285 -284 294 -288 5 -2 119 108 255 243 135 135 250 245 256 245 5 0 9
3 8 8 -5 13 42 53 54 46 6 -4 9 -1 6 6 -6 18 109 133 124 124 6 -4 8 -3 4 4
-3 6 19 36 50 66 53 54 73 69 58 44 -4 -7 -3 -8 5 -4 6 4 9 11 6 16 -3 5 11
25 31 44 l37 35 -1 833 c0 458 -1 840 -1 849 -1 23 -28 19 -42 -7z m-319
-1449 c0 -2 -10 -10 -22 -16 -21 -11 -22 -11 -9 4 13 16 31 23 31 12z m-339
-318 c-13 -13 -26 -3 -16 12 3 6 11 8 17 5 6 -4 6 -10 -1 -17z m-902 -390 c0
-9 -2 -9 -5 0 -3 7 -13 9 -22 6 -14 -4 -14 -3 -2 5 16 12 30 7 29 -11z m51
-30 c0 -4 4 -6 9 -2 6 3 15 -3 21 -14 7 -14 7 -22 -2 -27 -7 -4 -8 -3 -4 4 7
12 -3 15 -34 13 -9 0 -10 2 -3 5 15 7 5 34 -13 34 -15 0 -18 12 -7 24 8 7 33
-21 33 -37z m194 -172 c3 3 1 -1 -5 -8 -9 -9 -12 -9 -16 1 -3 6 -10 9 -15 6
-7 -4 -8 -2 -4 5 6 8 12 9 20 2 7 -6 16 -9 20 -6z m416 -385 c3 -1 11 -3 19
-4 32 -3 20 -23 -13 -22 -19 1 -32 4 -29 8 2 5 -1 8 -6 8 -6 0 -11 -6 -11 -12
0 -9 -3 -8 -9 2 -6 8 -8 17 -6 20 4 6 41 5 55 0z m-1096 -95 c-7 -16 -24 -21
-24 -6 0 8 7 13 27 20 1 1 0 -6 -3 -14z m26 -47 c0 -6 -6 -5 -15 2 -8 7 -15
14 -15 16 0 2 7 1 15 -2 8 -4 15 -11 15 -16z m1228 -83 c-3 -3 -9 2 -12 12 -6
14 -5 15 5 6 7 -7 10 -15 7 -18z m-1015 -80 c3 -6 -1 -19 -9 -30 -8 -10 -14
-14 -14 -9 0 6 6 16 13 23 10 10 9 12 -3 11 -8 -1 -22 -2 -30 -1 -12 1 -12 3
-2 9 18 12 40 11 45 -3z m1112 5 c3 -5 2 -10 -4 -10 -5 0 -13 5 -16 10 -3 6
-2 10 4 10 5 0 13 -4 16 -10z m150 -103 c4 4 5 2 1 -4 -6 -12 5 -18 27 -14 4
0 6 -2 5 -6 0 -5 2 -16 7 -26 5 -13 10 -15 15 -7 4 7 10 8 13 3 3 -5 -3 -15
-15 -22 -16 -10 -18 -10 -12 0 5 9 2 10 -11 5 -16 -6 -16 -4 -4 11 12 15 12
16 -3 10 -12 -4 -15 -2 -11 9 3 8 -1 14 -10 14 -9 0 -19 9 -22 20 -3 11 -11
20 -16 20 -6 0 -7 5 -3 11 4 8 11 4 18 -10 7 -12 16 -18 21 -14z m-1155 -57
c0 -5 -2 -10 -4 -10 -3 0 -8 5 -11 10 -3 6 -1 10 4 10 6 0 11 -4 11 -10z
m1269 -54 c7 -8 21 -13 32 -11 27 5 24 -10 -7 -30 -15 -10 -23 -12 -19 -4 6 9
3 11 -9 6 -14 -5 -15 -3 -6 13 7 12 7 21 0 25 -5 3 -10 0 -11 -7 0 -10 -2 -10
-6 1 -5 11 -7 11 -15 0 -6 -10 -7 -6 -2 11 6 23 6 24 -12 10 -17 -14 -18 -14
-5 2 14 19 36 13 60 -16z m66 -58 c5 4 5 1 1 -5 -4 -7 -3 -13 3 -13 6 0 24
-13 41 -30 17 -16 35 -30 41 -30 6 0 8 -3 6 -8 -3 -4 6 -21 19 -37 14 -17 22
-23 19 -14 -4 10 -1 20 6 25 9 5 11 2 6 -9 -3 -9 0 -18 9 -21 8 -3 13 -9 12
-13 -2 -4 2 -9 7 -11 15 -4 85 -75 85 -85 0 -5 -7 -7 -15 -3 -8 3 -15 0 -16
-7 0 -9 -2 -9 -6 1 -2 6 -10 9 -16 5 -7 -4 -5 2 3 12 14 17 13 18 -2 12 -11
-4 -15 -2 -12 7 3 7 -3 19 -12 27 -15 12 -16 11 -10 -11 l7 -25 -14 23 c-7 12
-15 20 -18 17 -3 -3 -6 3 -6 13 0 9 5 21 11 25 6 5 1 6 -11 2 -16 -4 -23 -1
-28 15 -4 11 -11 18 -16 14 -5 -3 -8 0 -7 8 2 7 -5 12 -15 12 -14 -2 -15 1 -6
12 8 9 8 14 1 14 -6 0 -16 -8 -21 -17 -10 -17 -10 -17 -11 0 0 9 5 17 11 17 5
0 7 5 4 10 -4 6 -10 8 -15 5 -4 -3 -13 2 -20 10 -7 8 -17 12 -23 8 -6 -3 -7
-1 -3 6 9 13 -18 43 -29 33 -5 -4 -5 -1 -1 6 6 9 11 10 20 3 7 -6 17 -7 21 -3z
m-30 -28 c3 -5 1 -10 -4 -10 -6 0 -11 5 -11 10 0 6 2 10 4 10 3 0 8 -4 11 -10z
m-911 -179 c3 8 3 4 0 -9 -3 -13 -1 -21 5 -20 5 2 20 -11 33 -28 13 -17 28
-33 33 -34 6 -2 19 -15 29 -29 11 -14 16 -23 11 -19 -4 4 -15 2 -23 -5 -13
-10 -14 -9 -7 2 6 11 4 13 -9 8 -14 -5 -15 -3 -6 13 16 30 12 35 -12 14 -22
-18 -22 -18 -8 0 14 18 13 18 -10 12 -17 -5 -21 -4 -11 2 10 8 8 13 -10 26
-13 9 -18 16 -11 16 20 0 13 16 -7 17 -15 1 -18 -3 -14 -15 6 -14 5 -15 -9 -2
-9 8 -12 17 -8 20 4 3 6 19 4 35 -3 30 -3 30 10 6 10 -18 15 -20 20 -10z
m1257 -96 c17 0 47 -47 42 -66 -6 -23 -20 -25 -20 -4 0 8 4 15 9 15 5 0 6 5 3
10 -5 8 -11 8 -20 0 -9 -7 -16 -6 -26 7 -12 14 -12 16 0 9 9 -6 12 -5 9 5 -3
8 -12 13 -20 11 -11 -2 -15 5 -14 23 1 23 2 24 14 8 7 -10 17 -18 23 -18z
m134 -125 c13 -12 24 -25 23 -29 0 -3 1 -8 2 -11 8 -21 6 -41 -3 -47 -7 -3 -9
-3 -5 2 4 4 -2 16 -13 26 -12 10 -18 22 -15 27 7 11 -30 42 -56 47 -35 7 -31
13 6 11 21 -2 46 -12 61 -26z m-1210 -20 c3 -6 -1 -7 -9 -4 -18 7 -21 14 -7
14 6 0 13 -4 16 -10z m125 -81 c10 -13 22 -20 26 -16 4 4 2 7 -4 7 -7 0 -12 5
-12 11 0 8 5 7 16 -2 14 -12 14 -14 -1 -25 -12 -9 -13 -13 -3 -17 8 -3 6 -6
-6 -6 -13 -1 -16 4 -12 15 4 11 2 15 -8 11 -10 -4 -12 1 -9 16 4 22 4 22 -13
2 -12 -14 -15 -16 -11 -4 3 9 1 21 -5 27 -7 7 -5 10 7 8 9 -1 25 -13 35 -27z
m70 -109 c0 -5 -5 -10 -11 -10 -5 0 -7 5 -4 10 3 6 8 10 11 10 2 0 4 -4 4 -10z
m1055 -160 c3 -5 1 -10 -4 -10 -6 0 -11 5 -11 10 0 6 2 10 4 10 3 0 8 -4 11
-10z m-857 -45 c-3 -3 -9 2 -12 12 -6 14 -5 15 5 6 7 -7 10 -15 7 -18z m849
18 c-4 -3 -2 -12 4 -20 7 -8 8 -13 1 -13 -12 0 -23 26 -15 34 4 3 9 6 11 6 3
0 2 -3 -1 -7z m-807 -53 c0 -5 -2 -10 -4 -10 -3 0 -8 5 -11 10 -3 6 -1 10 4
10 6 0 11 -4 11 -10z m815 0 c3 -5 1 -10 -4 -10 -6 0 -11 5 -11 10 0 6 2 10 4
10 3 0 8 -4 11 -10z m-720 -90 c3 -6 -1 -7 -9 -4 -18 7 -21 14 -7 14 6 0 13
-4 16 -10z m91 -21 c2 -24 16 -49 24 -44 11 7 70 -56 64 -67 -3 -4 -12 -4 -21
-1 -12 5 -14 3 -8 -7 5 -8 4 -11 -3 -6 -6 4 -8 14 -5 24 6 15 5 16 -13 2 -18
-14 -18 -14 -2 5 15 18 15 21 0 35 -14 13 -15 12 -9 -3 9 -25 -5 -28 -32 -6
-14 11 -18 19 -10 19 11 0 11 2 -1 10 -11 7 -11 10 -2 10 7 0 11 4 7 10 -3 5
-13 7 -23 4 -15 -5 -15 -4 1 6 9 6 14 16 11 22 -4 6 -1 9 7 6 8 -3 14 -11 15
-19z m169 -157 c6 -4 11 -13 13 -21 2 -11 0 -12 -11 -3 -8 7 -16 10 -19 7 -2
-3 -5 2 -5 10 0 16 7 19 22 7z m109 -178 c3 -8 2 -12 -4 -9 -6 3 -10 10 -10
16 0 14 7 11 14 -7z m36 -18 c0 -3 -4 -8 -10 -11 -5 -3 -10 -1 -10 4 0 6 5 11
10 11 6 0 10 -2 10 -4z m315 -576 c3 -5 1 -10 -4 -10 -6 0 -11 5 -11 10 0 6 2
10 4 10 3 0 8 -4 11 -10z m-8 -27 c-4 -3 -2 -12 4 -20 7 -8 8 -13 1 -13 -12 0
-23 26 -15 34 4 3 9 6 11 6 3 0 2 -3 -1 -7z"/>
<path d="M4036 4448 c3 -5 10 -6 15 -3 13 9 11 12 -6 12 -8 0 -12 -4 -9 -9z"/>
<path d="M4100 4386 c0 -2 7 -9 15 -16 9 -7 15 -8 15 -2 0 5 -7 12 -15 16 -8
3 -15 4 -15 2z"/>
<path d="M4293 4212 c15 -16 25 -31 22 -34 -3 -2 2 -5 10 -5 11 0 5 11 -17 34
-17 18 -34 33 -37 33 -3 0 7 -13 22 -28z"/>
<path d="M3170 4156 c0 -2 8 -10 18 -17 15 -13 16 -12 3 4 -13 16 -21 21 -21
13z"/>
<path d="M4414 4090 c0 -13 4 -16 10 -10 7 7 7 13 0 20 -6 6 -10 3 -10 -10z"/>
<path d="M4528 3989 c12 -14 20 -28 17 -31 -3 -3 3 -11 12 -19 16 -12 17 -12
6 2 -7 9 -11 18 -8 21 3 2 -7 15 -23 29 l-27 24 23 -26z"/>
<path d="M3950 3376 c0 -2 7 -9 15 -16 13 -11 14 -10 9 4 -5 14 -24 23 -24 12z"/>
<path d="M4010 3346 c0 -2 8 -10 18 -17 15 -13 16 -12 3 4 -13 16 -21 21 -21
13z"/>
<path d="M4373 7725 c0 -8 4 -12 9 -9 4 3 8 9 8 15 0 5 -4 9 -8 9 -5 0 -9 -7
-9 -15z"/>
<path d="M4275 7639 c-4 -6 -5 -12 -2 -15 2 -3 7 2 10 11 7 17 1 20 -8 4z"/>
<path d="M4216 7585 c-9 -26 -7 -32 5 -12 6 10 9 21 6 23 -2 3 -7 -2 -11 -11z"/>
<path d="M4150 7509 c0 -5 5 -7 10 -4 6 3 10 8 10 11 0 2 -4 4 -10 4 -5 0 -10
-5 -10 -11z"/>
<path d="M4080 7450 c-9 -6 -10 -10 -3 -10 6 0 15 5 18 10 8 12 4 12 -15 0z"/>
<path d="M4035 7410 c3 -5 8 -10 11 -10 2 0 4 5 4 10 0 6 -5 10 -11 10 -5 0
-7 -4 -4 -10z"/>
<path d="M3961 7340 c-13 -11 -19 -20 -13 -20 5 0 15 7 22 15 7 8 17 12 23 8
6 -3 7 -1 3 5 -9 15 -6 15 -35 -8z"/>
<path d="M3830 7226 c0 -2 8 -10 18 -17 15 -13 16 -12 3 4 -13 16 -21 21 -21
13z"/>
<path d="M3751 7133 c-1 -17 16 -25 25 -12 4 7 3 9 -4 5 -5 -3 -13 0 -15 6 -4
9 -6 10 -6 1z"/>
<path d="M3650 7030 c0 -5 5 -10 11 -10 5 0 7 5 4 10 -3 6 -8 10 -11 10 -2 0
-4 -4 -4 -10z"/>
<path d="M3490 6910 c0 -5 5 -10 11 -10 5 0 7 5 4 10 -3 6 -8 10 -11 10 -2 0
-4 -4 -4 -10z"/>
<path d="M3326 6708 c3 -5 10 -6 15 -3 13 9 11 12 -6 12 -8 0 -12 -4 -9 -9z"/>
<path d="M3300 6685 c0 -8 2 -15 4 -15 2 0 6 7 10 15 3 8 1 15 -4 15 -6 0 -10
-7 -10 -15z"/>
<path d="M3226 6628 c3 -4 11 -5 19 -1 21 7 19 12 -4 10 -11 0 -18 -5 -15 -9z"/>
<path d="M3180 6560 c-8 -5 -12 -12 -9 -15 4 -3 12 1 19 10 14 17 11 19 -10 5z"/>
<path d="M3080 6496 c0 -2 8 -10 18 -17 15 -13 16 -12 3 4 -13 16 -21 21 -21
13z"/>
<path d="M3036 6443 c-6 -14 -5 -15 5 -6 7 7 10 15 7 18 -3 3 -9 -2 -12 -12z"/>
<path d="M2995 6390 c-3 -6 1 -7 9 -4 18 7 21 14 7 14 -6 0 -13 -4 -16 -10z"/>
<path d="M2973 6365 c0 -8 4 -12 9 -9 5 3 6 10 3 15 -9 13 -12 11 -12 -6z"/>
<path d="M2919 6343 c-13 -16 -12 -17 4 -4 9 7 17 15 17 17 0 8 -8 3 -21 -13z"/>
<path d="M4053 6325 c0 -8 4 -12 9 -9 5 3 6 10 3 15 -9 13 -12 11 -12 -6z"/>
<path d="M2839 6243 c-13 -17 -13 -17 6 -3 11 8 22 16 24 17 2 2 0 3 -6 3 -6
0 -17 -8 -24 -17z"/>
<path d="M3995 6230 c3 -5 8 -10 11 -10 2 0 4 5 4 10 0 6 -5 10 -11 10 -5 0
-7 -4 -4 -10z"/>
<path d="M3970 6209 c0 -5 5 -7 10 -4 6 3 10 8 10 11 0 2 -4 4 -10 4 -5 0 -10
-5 -10 -11z"/>
<path d="M4662 6158 c-6 -21 -5 -35 2 -40 6 -4 6 -11 0 -20 -12 -16 -12 -57 0
-77 6 -9 5 -12 -1 -8 -13 8 -11 -52 2 -73 5 -8 4 -11 -1 -7 -11 6 -12 -142 -1
-159 3 -6 4 -14 1 -17 -10 -10 -12 -97 -2 -103 4 -3 5 -10 1 -17 -11 -17 -10
-81 2 -96 7 -11 7 -13 -1 -8 -14 8 -13 -51 1 -73 5 -8 4 -11 -2 -7 -13 8 -11
-52 2 -73 5 -8 4 -11 -2 -7 -13 8 -11 -52 2 -73 5 -8 4 -11 -1 -7 -11 6 -12
-142 -1 -159 3 -6 4 -14 1 -17 -10 -10 -12 -97 -2 -103 4 -3 5 -10 1 -17 -11
-17 -10 -81 2 -96 7 -11 7 -13 -1 -8 -14 8 -13 -51 1 -73 5 -8 4 -11 -2 -7
-13 8 -11 -52 2 -73 5 -8 4 -11 -2 -7 -13 8 -11 -52 2 -73 5 -8 4 -11 -2 -7
-12 8 -11 -72 1 -91 3 -6 2 -13 -2 -16 -18 -11 -7 -67 16 -85 21 -16 22 -17 3
-17 -11 0 -17 5 -14 10 4 5 1 6 -7 1 -9 -6 -11 -4 -5 5 6 9 4 11 -4 5 -10 -5
-10 -10 -1 -19 6 -6 15 -11 20 -11 10 0 56 -48 63 -67 3 -8 6 -5 6 7 1 17 4
15 16 -9 17 -33 19 -50 5 -41 -6 4 -7 11 -4 17 5 7 2 8 -6 3 -8 -5 -11 -4 -7
1 3 6 -3 11 -14 11 -10 1 -19 -2 -19 -8 0 -5 7 -9 15 -9 9 0 12 -6 8 -17 -5
-12 -2 -15 8 -11 14 6 51 -14 50 -26 -3 -21 0 -26 10 -20 6 3 7 9 2 13 -5 3
-8 12 -7 19 1 6 2 18 3 25 1 9 4 8 10 -2 5 -8 7 -21 4 -30 -5 -13 -3 -14 8 -3
22 20 31 14 9 -8 -12 -12 -17 -26 -13 -37 6 -16 5 -17 -13 -3 -18 14 -18 14
-5 -3 14 -18 16 -18 28 -1 7 9 10 21 7 25 -2 4 6 13 18 19 22 11 22 10 4 -4
-16 -13 -17 -16 -4 -16 9 0 18 -7 22 -15 3 -8 11 -13 18 -11 7 1 10 1 5 -1
-12 -7 3 -23 17 -17 7 3 19 -2 26 -11 7 -8 11 -15 9 -16 -31 -6 -39 -6 -39 2
0 5 -3 8 -7 7 -5 -2 -10 2 -13 7 -10 22 -34 44 -42 39 -5 -3 -6 -10 -3 -15 4
-5 1 -9 -4 -9 -6 0 -11 -5 -11 -11 0 -8 5 -7 15 1 13 11 18 10 29 -6 19 -25 8
-41 -11 -17 -13 17 -13 16 -3 -5 6 -12 15 -20 20 -17 4 3 10 2 13 -2 2 -5 2
-3 1 4 -2 6 6 11 17 10 10 -1 19 -5 19 -10 0 -5 8 -3 17 4 11 10 14 10 9 2 -4
-7 -3 -13 3 -13 5 0 11 5 13 12 3 7 7 5 11 -6 4 -10 3 -15 -3 -11 -13 8 -13
-5 0 -25 6 -10 10 -11 10 -2 0 6 5 12 11 12 5 0 8 -4 5 -9 -7 -11 20 -34 32
-27 5 3 9 -4 8 -16 0 -12 5 -23 13 -26 8 -3 11 0 7 7 -5 7 -1 8 10 4 11 -4 13
-8 6 -11 -7 -2 -12 -8 -12 -14 0 -6 7 -8 15 -5 8 4 17 1 21 -5 4 -7 3 -8 -4
-4 -7 4 -12 2 -12 -5 0 -8 -6 -6 -18 4 -10 10 -22 14 -27 10 -4 -5 -5 -2 0 6
6 10 4 12 -5 6 -9 -6 -11 -4 -5 5 6 9 4 11 -5 5 -7 -5 -11 -4 -8 1 3 5 -8 19
-23 32 -16 13 -29 19 -29 13 0 -6 5 -11 11 -11 7 0 9 -9 6 -21 -5 -17 -3 -18
10 -7 14 11 15 10 10 -12 -4 -14 -4 -19 -1 -12 7 15 24 6 20 -11 -1 -7 -1 -8
2 -4 2 4 10 3 18 -4 8 -6 11 -15 8 -20 -3 -5 0 -9 5 -9 6 0 11 6 11 12 0 7 14
-3 30 -21 26 -28 29 -36 18 -50 -11 -14 -11 -14 4 -3 11 9 18 10 23 2 3 -6 10
-8 15 -5 8 5 20 -17 27 -48 2 -12 -1 -16 -9 -11 -7 4 -8 3 -4 -5 6 -8 12 -9
20 -2 16 14 26 4 19 -17 -7 -18 -5 -17 17 12 12 16 12 18 1 11 -10 -6 -12 -4
-6 5 5 8 4 11 -1 7 -6 -3 -16 -2 -24 4 -9 5 -10 9 -3 9 6 0 -3 16 -19 35 -17
19 -34 33 -37 31 -3 -2 -17 11 -30 28 -14 17 -21 28 -16 24 4 -4 15 -2 24 4
13 10 14 10 4 -1 -15 -17 10 -46 32 -37 9 3 12 0 8 -10 -3 -8 1 -14 11 -14 9
0 15 -3 15 -7 -3 -19 2 -33 12 -33 5 0 8 4 5 9 -4 5 0 8 8 7 17 -2 51 -36 36
-36 -6 0 -13 7 -16 15 -4 8 -10 12 -16 9 -5 -3 -2 -14 8 -25 9 -10 20 -17 23
-15 3 2 17 -2 31 -10 l25 -15 -25 7 c-22 6 -23 5 -11 -10 8 -9 20 -15 27 -12
9 3 11 -1 7 -12 -6 -15 -5 -16 12 -2 10 8 16 10 12 4 -4 -7 0 -15 9 -18 9 -4
14 -13 10 -21 -3 -8 -1 -15 4 -15 16 0 81 -71 74 -81 -9 -15 3 -10 22 8 16 16
16 16 9 -7 -7 -23 -7 -24 11 -10 15 11 16 11 7 0 -14 -15 -46 -23 -38 -9 4 5
-2 6 -11 2 -14 -5 -16 -3 -11 11 5 12 3 15 -6 10 -6 -4 -9 -4 -5 0 9 11 -14
36 -26 28 -5 -3 -6 1 -1 8 5 9 4 11 -4 6 -7 -5 -10 -2 -9 6 2 7 -2 12 -8 11
-5 -1 -16 7 -23 19 -7 11 -8 17 -2 13 6 -3 11 -1 11 5 0 7 -6 10 -14 7 -7 -3
-19 0 -25 6 -8 8 -11 8 -11 0 0 -6 7 -13 15 -17 16 -6 16 -26 0 -39 -5 -5 0
-6 12 -2 16 4 26 0 35 -14 7 -12 18 -21 25 -21 6 0 14 -9 18 -20 3 -11 21 -30
38 -42 40 -27 46 -37 40 -57 -4 -14 -3 -14 6 -1 10 14 13 11 15 -19 1 -7 11
-20 24 -29 21 -14 22 -13 15 4 -6 16 -5 17 9 6 14 -11 19 -9 32 10 9 12 16 17
16 11 0 -7 -4 -15 -10 -18 -5 -3 -10 -11 -10 -17 0 -6 7 -5 17 3 9 8 14 9 10
3 -4 -7 0 -15 9 -18 14 -5 14 -9 3 -23 -13 -15 -12 -15 9 -4 13 7 28 10 35 7
7 -2 4 -5 -5 -5 -10 -1 -22 -11 -29 -22 -8 -15 -8 -19 0 -15 6 4 11 2 11 -4 0
-6 5 -8 11 -4 7 4 9 0 5 -14 -4 -11 -2 -23 3 -27 7 -4 8 0 4 11 -6 15 -4 15
18 1 14 -10 36 -14 52 -12 20 4 27 1 27 -10 0 -10 5 -13 13 -9 7 5 6 0 -3 -11
-13 -17 -13 -18 0 -13 8 3 24 2 35 -3 18 -7 18 -8 2 -8 -10 -1 -16 -5 -12 -11
3 -5 12 -7 20 -3 18 6 19 -6 4 -27 -9 -13 -10 -13 -6 2 4 12 1 16 -13 13 -11
-2 -19 -1 -17 3 1 4 -1 7 -5 7 -14 0 -36 39 -31 55 4 9 0 7 -11 -5 l-16 -20 6
20 c5 19 5 19 -6 1 -10 -14 -10 -20 1 -27 7 -4 17 -5 22 -2 5 3 6 -5 2 -18 -5
-19 -4 -21 4 -9 6 8 11 12 12 8 1 -5 3 -12 4 -18 1 -5 3 -13 4 -16 0 -4 8 -1
16 6 18 15 20 -1 3 -18 -9 -9 -9 -12 0 -12 7 0 12 4 12 8 0 11 38 13 45 2 3
-5 12 -7 19 -4 8 3 16 -4 19 -16 4 -15 10 -19 19 -14 7 4 10 4 6 -1 -8 -8 16
-36 29 -34 20 3 25 -2 14 -15 -8 -10 -9 -16 -1 -21 5 -3 10 -2 10 3 0 5 7 9
15 9 21 0 19 -14 -3 -19 -19 -5 -59 17 -45 24 4 3 2 3 -5 1 -8 -1 -10 2 -6 9
5 7 3 8 -6 3 -9 -6 -11 -4 -5 5 6 9 4 11 -5 5 -9 -5 -11 -4 -6 4 5 7 2 10 -6
9 -7 -2 -12 3 -10 10 1 6 -3 12 -9 12 -5 0 -7 6 -3 13 4 6 4 9 -1 5 -4 -4 -13
-4 -19 1 -7 6 -18 4 -30 -5 -11 -8 -15 -14 -9 -14 7 0 15 5 18 10 4 6 11 8 16
4 6 -3 3 -11 -7 -18 -14 -11 -15 -14 -3 -22 8 -5 23 -9 34 -9 14 0 19 -6 17
-20 -2 -16 -1 -17 7 -5 9 12 11 12 17 -3 3 -9 13 -17 21 -17 8 0 11 -5 8 -10
-8 -13 14 -42 25 -35 11 7 33 -22 25 -35 -3 -5 -2 -10 3 -10 16 0 20 35 7 54
-9 12 -14 13 -17 5 -3 -9 -6 -8 -10 3 -5 11 -2 15 10 13 9 -1 20 2 23 7 3 5 9
2 12 -7 4 -9 3 -13 -3 -10 -6 3 -10 3 -10 -1 0 -9 53 -54 63 -54 5 0 6 -4 3
-9 -5 -8 17 -23 37 -25 4 -1 7 -5 8 -11 0 -5 6 -17 13 -25 15 -17 17 -50 4
-50 -4 0 -8 -5 -8 -11 0 -5 5 -7 10 -4 12 7 13 -7 3 -21 -5 -5 -1 -2 8 8 18
18 31 14 23 -7 -4 -9 1 -12 13 -10 10 2 25 4 33 4 13 1 13 2 0 11 -9 6 -17 5
-22 -3 -6 -9 -8 -8 -9 3 -1 8 -1 19 0 23 1 5 -4 5 -10 1 -8 -5 -9 -3 -4 6 5 8
4 11 -3 6 -6 -3 -13 -3 -16 2 -2 4 4 9 15 9 10 1 19 -3 19 -8 0 -6 5 -7 12 -3
7 5 8 3 4 -5 -5 -8 0 -14 14 -18 13 -4 19 -11 15 -20 -3 -10 -1 -13 9 -10 10
4 12 -1 9 -16 -4 -22 -4 -22 12 -2 10 12 15 14 13 5 -6 -18 21 -50 37 -43 7 2
16 0 20 -6 4 -7 -1 -9 -12 -5 -11 4 -5 -7 16 -26 26 -25 31 -34 21 -43 -10 -9
-11 -9 -5 2 6 10 4 12 -5 6 -9 -6 -11 -4 -5 5 6 9 4 11 -5 5 -9 -6 -11 -4 -5
5 6 9 4 11 -5 5 -9 -6 -11 -4 -5 5 6 9 4 11 -5 5 -9 -6 -11 -4 -5 5 6 9 4 11
-5 5 -9 -6 -11 -4 -5 5 6 9 4 11 -5 5 -9 -6 -11 -4 -5 5 6 9 4 11 -5 5 -9 -6
-11 -4 -5 5 6 9 4 11 -5 5 -9 -6 -11 -4 -5 5 6 9 4 11 -5 5 -9 -6 -11 -4 -5 5
5 8 4 11 -3 6 -6 -3 -15 2 -21 11 -6 11 -11 13 -11 5 0 -7 10 -23 23 -35 13
-12 21 -30 19 -39 -2 -10 1 -18 7 -18 6 0 7 8 4 18 -4 10 9 2 30 -18 26 -24
33 -36 24 -42 -7 -5 -8 -8 -1 -8 6 0 16 -10 23 -22 11 -23 11 -23 5 2 -6 22
-5 23 9 11 9 -7 14 -17 11 -22 -3 -5 3 -6 13 -4 10 3 8 0 -4 -6 -13 -7 -23
-18 -23 -26 0 -7 -5 -13 -10 -13 -14 0 -88 -78 -82 -85 3 -3 0 -5 -6 -5 -17 0
-72 -57 -64 -66 4 -4 -1 -4 -10 -1 -10 3 -20 1 -24 -5 -5 -7 -2 -8 7 -3 8 5
-28 -33 -80 -83 -51 -50 -98 -89 -104 -85 -5 3 -7 1 -3 -5 3 -6 -32 -48 -80
-94 -48 -46 -101 -98 -117 -116 -17 -18 -37 -30 -44 -27 -8 3 -11 0 -8 -6 9
-13 -43 -61 -57 -53 -7 4 -8 2 -4 -4 12 -19 -4 -35 -20 -21 -12 9 -13 9 -9 -3
7 -18 -30 -62 -44 -53 -7 4 -8 0 -4 -11 5 -14 3 -16 -11 -11 -9 4 -15 3 -12
-2 3 -5 -7 -19 -23 -32 -16 -13 -27 -28 -24 -33 4 -6 -1 -6 -13 -2 -10 4 -15
4 -11 0 10 -11 -252 -266 -265 -258 -6 4 -8 3 -4 -4 8 -13 -52 -74 -65 -66 -5
3 -8 0 -7 -8 2 -7 -3 -12 -10 -10 -8 1 -11 -2 -8 -6 7 -12 -28 -44 -39 -35 -4
5 -5 3 -2 -3 4 -7 1 -17 -7 -23 -11 -9 -13 26 -12 211 1 123 5 229 9 236 5 6
5 12 0 12 -9 0 -9 57 0 67 7 6 11 -12 8 -30 -1 -5 3 -6 9 -2 7 4 6 13 -1 27
-9 18 -8 24 7 35 10 7 14 13 8 13 -5 0 -1 5 8 11 12 7 24 6 37 -1 14 -7 22 -7
26 0 4 6 3 10 -2 9 -19 -3 -33 2 -33 12 0 6 7 9 15 6 8 -4 17 -1 21 5 4 7 3 8
-4 4 -7 -4 -12 -3 -12 2 0 17 13 22 27 10 10 -8 12 -8 8 3 -7 18 50 83 64 75
7 -4 8 -1 5 8 -4 11 0 16 12 16 9 0 15 3 11 6 -3 4 0 13 8 20 17 17 29 18 19
2 -4 -8 -3 -10 2 -5 5 5 10 13 10 18 1 5 2 14 3 20 0 5 4 8 9 6 4 -3 18 9 31
27 14 18 39 43 57 57 18 13 30 28 27 32 -3 5 4 4 15 -2 17 -9 19 -8 15 8 -5
19 28 47 40 35 3 -3 4 3 4 12 -1 11 8 20 23 25 14 4 20 7 13 8 -7 1 1 15 18
32 19 19 36 29 46 25 14 -6 14 -4 2 11 -12 15 -12 16 4 10 13 -5 17 -3 15 5
-7 19 20 41 39 34 14 -6 14 -4 2 10 -12 15 -11 16 9 10 14 -5 22 -3 22 4 0 6
-4 8 -10 5 -24 -15 -6 11 36 50 25 24 43 37 40 30 -5 -14 18 -15 31 0 4 4 2 5
-4 1 -8 -4 -13 -2 -13 7 0 19 46 61 59 53 5 -4 13 -1 17 5 5 8 3 9 -6 4 -8 -5
-11 -3 -8 6 3 8 11 13 17 11 7 -1 10 2 7 7 -4 5 2 14 11 20 10 6 14 11 10 11
-4 0 7 14 24 31 l33 32 -153 150 -153 149 -50 -48 c-104 -101 -188 -188 -188
-196 0 -4 -5 -8 -12 -8 -6 0 -27 -18 -45 -40 -19 -22 -39 -38 -44 -34 -5 3 -8
2 -7 -3 4 -13 -64 -83 -74 -77 -5 3 -7 0 -6 -8 2 -7 -5 -12 -14 -12 -11 1 -14
-4 -11 -14 4 -10 2 -13 -6 -8 -6 4 -10 3 -9 -2 2 -5 -14 -26 -34 -46 -37 -36
-55 -46 -42 -23 4 7 3 8 -2 4 -5 -5 -9 -16 -9 -25 0 -9 -6 -16 -12 -15 -7 2
-12 0 -11 -5 5 -14 -242 -253 -254 -246 -7 4 -8 3 -4 -4 4 -7 -6 -24 -25 -41
l-32 -30 1 -828 c0 -455 1 -838 1 -850 1 -19 6 -22 32 -19 37 4 56 20 38 31
-7 5 -10 4 -6 -2 4 -6 0 -14 -9 -17 -27 -10 -28 -7 -4 19 24 25 47 35 34 13
-4 -7 -3 -8 5 -4 9 6 9 11 0 22 -7 9 -8 14 -2 12 6 -2 20 8 32 21 21 24 22 24
37 5 14 -18 14 -18 3 5 -10 21 -9 26 7 38 10 7 22 13 28 13 5 0 7 3 3 6 -3 4
0 13 8 20 17 17 29 18 19 2 -4 -7 -3 -8 5 -4 6 4 9 11 7 15 -8 13 25 53 40 47
14 -5 27 9 30 32 4 22 37 42 47 29 5 -7 6 -3 2 9 -7 25 23 43 37 22 6 -9 8 -7
4 7 -7 24 47 81 65 69 7 -4 9 -3 5 4 -10 16 52 75 71 68 14 -6 14 -4 2 11 -12
15 -12 16 4 10 13 -5 17 -3 15 5 -7 19 20 41 39 34 14 -6 14 -4 2 10 -12 15
-11 16 9 10 14 -5 22 -3 22 4 0 6 -5 8 -12 4 -8 -5 -9 -2 -5 10 4 10 7 20 7
22 0 3 4 3 9 0 5 -4 20 7 34 23 16 20 28 26 35 19 6 -6 12 -6 17 3 5 8 4 10
-3 5 -21 -13 -13 10 12 33 18 17 25 19 30 9 3 -7 4 -3 2 9 -4 21 17 39 34 28
4 -3 7 3 6 13 -1 11 6 16 17 15 12 0 16 4 13 13 -3 7 -1 16 4 19 4 3 11 -1 13
-7 3 -7 6 -5 6 6 1 20 96 118 105 108 3 -3 0 -12 -7 -21 -10 -14 -10 -14 5 -3
9 7 15 22 13 34 -3 14 0 18 10 14 9 -3 15 1 15 9 0 8 5 15 10 15 6 0 10 5 10
10 0 12 48 59 61 61 5 1 13 2 18 3 5 0 13 5 18 10 5 5 3 6 -4 2 -7 -4 -13 -4
-13 1 1 11 40 60 40 49 0 -5 11 3 26 19 27 29 46 27 23 -2 -13 -16 -12 -17 4
-4 10 8 16 20 13 28 -3 7 9 28 26 46 17 18 28 26 23 18 -5 -10 -4 -12 3 -7 7
4 12 14 12 22 0 8 5 15 10 15 6 1 14 2 19 3 5 0 13 5 18 10 5 5 2 6 -6 1 -9
-5 -12 -3 -9 6 3 8 11 13 17 12 6 -2 11 2 11 7 0 13 37 50 51 50 5 0 8 4 4 9
-3 5 4 12 15 16 11 3 20 11 20 17 0 5 7 8 14 5 10 -4 13 -1 10 7 -6 16 21 40
35 31 7 -3 8 0 5 9 -4 9 1 18 10 22 9 3 13 11 9 18 -3 6 -3 8 2 4 4 -4 23 10
43 32 32 37 63 56 46 28 -5 -7 -3 -8 5 -4 7 5 10 10 7 13 -9 10 14 43 30 43 8
0 12 5 9 10 -6 9 8 14 28 11 5 -1 6 3 3 8 -6 10 0 17 52 63 20 18 38 25 49 21
16 -5 16 -4 -1 9 -18 14 -18 15 4 21 15 4 19 10 14 19 -5 9 -2 8 11 -2 17 -14
17 -13 10 9 -5 16 -4 21 4 17 6 -4 11 -1 12 6 0 7 4 4 9 -7 8 -18 9 -17 9 8 1
17 6 27 17 27 8 0 13 3 11 8 -2 4 4 15 15 25 10 9 18 14 18 10 0 -5 5 -1 10 7
7 12 9 10 7 -8 -1 -13 -6 -21 -14 -18 -7 3 -15 0 -19 -7 -4 -7 -4 -9 1 -5 4 4
15 3 25 -2 13 -7 17 -5 17 8 0 48 3 54 23 49 10 -3 24 1 31 9 6 8 15 11 20 8
5 -3 9 -1 9 5 0 5 -9 9 -19 8 -11 0 -18 -4 -15 -8 2 -4 0 -10 -6 -14 -6 -4 -9
4 -8 18 2 17 7 23 17 19 10 -4 12 -1 6 9 -6 9 0 8 19 -5 17 -11 25 -13 20 -5
-12 20 -15 49 -5 49 5 0 11 -3 14 -7 2 -5 2 -2 1 5 -6 23 7 43 21 32 10 -8 15
-8 21 1 4 8 3 9 -4 5 -23 -14 -12 11 16 36 15 14 55 56 90 92 l63 66 -49 47
c-224 216 -580 561 -862 833 -111 107 -239 231 -285 275 -45 44 -185 179 -310
300 -125 121 -300 291 -390 378 l-163 158 0 229 c1 133 5 230 10 230 5 0 6 -6
2 -12 -6 -10 -5 -10 8 -1 8 7 18 10 21 6 4 -3 -1 -12 -11 -20 -16 -12 -16 -13
0 -7 11 4 20 0 24 -9 6 -18 42 -19 63 -3 11 8 13 8 7 -1 -4 -7 -2 -13 3 -13
13 0 10 -42 -4 -52 -5 -4 -13 -2 -17 5 -4 6 -9 9 -13 6 -3 -3 5 -14 17 -25 12
-10 18 -14 15 -8 -4 7 -1 14 6 16 18 7 38 -2 31 -14 -5 -7 -2 -8 6 -3 10 6 7
12 -10 25 -17 13 -20 19 -10 25 9 5 11 4 6 -3 -7 -12 3 -15 34 -13 9 0 10 -2
3 -5 -7 -3 -9 -12 -6 -20 3 -7 9 -12 13 -9 5 3 12 0 16 -6 4 -8 9 -7 16 2 8
11 9 10 4 -3 -3 -10 -1 -18 5 -18 6 0 9 -6 6 -14 -4 -10 0 -13 14 -11 11 2 17
0 14 -5 -3 -5 4 -15 16 -24 20 -14 18 -43 -2 -30 -5 3 -6 10 -3 16 5 7 2 8 -6
3 -9 -5 -11 -4 -6 4 5 7 2 10 -6 9 -7 -2 -12 2 -11 9 2 8 -4 10 -14 6 -13 -5
-15 -2 -10 11 5 11 3 15 -5 10 -7 -5 -8 -3 -3 6 6 9 4 11 -5 5 -9 -6 -11 -4
-5 6 5 8 5 11 0 7 -4 -4 -14 -3 -21 3 -8 7 -14 6 -19 -2 -8 -12 14 -31 27 -23
4 3 8 -2 8 -10 0 -8 9 -18 20 -21 11 -4 18 -11 14 -16 -3 -6 -12 -5 -22 2 -13
10 -13 9 1 -7 15 -16 19 -17 27 -4 5 8 10 13 11 10 7 -42 11 -55 19 -69 8 -13
9 -11 5 9 -5 23 -3 25 30 26 26 1 35 -2 31 -12 -3 -7 -1 -16 4 -19 6 -4 10 2
11 12 0 16 1 16 8 -2 5 -11 6 -27 3 -35 -5 -13 -4 -13 13 0 11 9 16 10 11 3
-4 -8 -1 -13 9 -13 11 0 14 -7 11 -25 -4 -22 -2 -25 15 -20 12 4 19 2 19 -6 0
-7 -3 -9 -7 -6 -8 8 -33 -12 -33 -26 0 -6 7 -2 15 9 15 19 16 19 13 -1 -2 -11
-7 -23 -11 -26 -5 -3 -1 -9 8 -12 10 -5 14 -3 9 4 -4 7 -1 10 7 7 8 -3 13 -14
11 -24 -2 -15 -1 -16 6 -5 6 7 15 10 21 6 9 -5 8 -10 -4 -19 -15 -11 -15 -13
-1 -25 13 -11 17 -11 22 3 3 9 10 16 15 16 13 0 6 -23 -10 -36 -12 -9 -6 -11
25 -8 37 2 38 2 19 -13 -16 -12 -16 -14 -3 -10 11 4 21 0 27 -11 6 -10 11 -12
11 -4 0 19 -4 27 -13 24 -5 -1 -6 1 -3 6 6 10 -30 43 -38 35 -3 -3 -3 5 -1 17
2 12 7 25 11 29 4 3 5 -1 1 -10 -7 -21 46 -72 61 -57 6 6 11 4 15 -6 4 -11 1
-13 -11 -9 -15 6 -15 5 -3 -10 8 -10 11 -20 7 -24 -3 -3 -6 0 -6 7 0 7 -3 10
-6 7 -4 -4 -1 -14 7 -23 12 -15 11 -16 -11 -11 -14 4 -19 4 -12 1 6 -3 9 -10
6 -16 -4 -6 2 -5 15 1 12 7 21 8 21 2 0 -5 -6 -12 -12 -15 -7 -3 -4 -4 7 -1
23 6 50 -28 38 -48 -4 -7 0 -7 10 2 11 9 17 10 17 2 0 -6 4 -11 8 -11 5 0 9 7
9 15 0 8 -4 12 -9 9 -4 -3 -8 0 -8 6 0 6 -4 8 -10 5 -5 -3 -15 5 -22 19 -6 14
-14 26 -17 26 -4 0 -7 9 -8 21 -1 12 3 19 10 16 7 -2 10 -12 9 -22 -3 -17 -2
-17 15 -5 15 12 16 12 6 0 -18 -20 -16 -35 2 -20 10 9 15 9 15 1 0 -6 -4 -11
-10 -11 -19 0 -10 -16 10 -17 11 -1 18 2 15 7 -3 6 1 7 10 3 13 -5 14 -7 3
-14 -12 -8 -4 -13 14 -10 4 0 4 -7 1 -17 -6 -15 -5 -16 13 -2 15 11 16 11 7 0
-18 -20 -16 -35 2 -20 19 16 20 3 1 -16 -11 -10 -15 -11 -19 -1 -2 6 -4 0 -3
-15 1 -33 11 -37 19 -8 4 14 10 18 23 13 12 -4 15 -3 10 5 -5 8 -1 10 10 5 11
-4 13 -8 6 -11 -19 -6 -14 -23 5 -20 10 2 18 -3 18 -12 0 -9 8 -14 20 -12 14
2 16 0 7 -6 -10 -7 -10 -11 3 -22 12 -10 15 -10 15 1 0 12 2 11 9 0 6 -9 4
-22 -4 -35 -10 -14 -11 -26 -5 -36 5 -8 10 -11 10 -7 0 12 26 -15 32 -33 3
-10 6 -8 10 7 4 14 2 22 -6 20 -6 -1 -10 4 -8 11 1 8 -2 11 -7 8 -17 -11 -20
22 -3 36 16 12 16 11 2 -6 -14 -18 -13 -18 10 -12 19 6 21 5 10 -3 -14 -10 -7
-15 13 -12 5 1 6 -3 3 -8 -4 -5 -2 -12 4 -16 5 -3 10 0 10 7 0 8 5 6 11 -5 15
-25 -1 -45 -18 -22 -12 17 -13 17 -13 2 0 -9 6 -18 13 -19 34 -4 43 -3 48 5 4
5 10 4 13 -2 4 -6 2 -11 -3 -11 -6 0 -11 -4 -11 -10 0 -5 7 -10 16 -10 9 0 12
-5 8 -12 -5 -8 -13 -4 -26 11 -14 19 -18 20 -18 7 0 -10 -4 -14 -10 -11 -5 3
-10 1 -10 -5 0 -7 8 -9 19 -5 16 5 19 1 16 -21 l-3 -27 19 24 c22 29 33 20 35
-29 2 -51 2 -52 16 -52 9 0 9 3 0 12 -20 20 -13 32 8 13 11 -10 17 -22 14 -26
-3 -5 0 -17 6 -26 9 -15 10 -15 4 6 l-6 23 31 -23 c36 -27 39 -33 10 -26 -13
4 -18 2 -13 -3 5 -5 20 -11 33 -13 13 -2 29 -11 36 -20 7 -9 18 -17 26 -17 10
1 8 4 -4 11 -9 6 -14 15 -11 21 5 7 2 8 -6 3 -9 -6 -11 -4 -5 5 6 9 4 11 -5 5
-9 -6 -11 -4 -5 5 6 9 4 11 -5 5 -9 -6 -11 -4 -5 5 6 9 4 11 -5 5 -9 -6 -11
-4 -5 5 6 9 4 11 -5 5 -9 -5 -11 -4 -6 3 5 8 1 10 -11 6 -15 -5 -16 -4 -3 6
13 10 12 11 -3 6 -12 -4 -16 -2 -11 6 5 7 3 8 -6 3 -8 -5 -11 -4 -7 2 8 12
-27 46 -36 36 -4 -3 -7 -1 -7 5 0 6 9 10 20 9 11 -1 20 -7 20 -13 0 -7 9 -10
23 -8 19 4 20 3 3 -4 -14 -6 -16 -11 -8 -16 7 -4 17 -4 24 0 6 4 8 3 5 -3 -8
-13 17 -36 27 -25 4 4 7 3 6 -3 -5 -22 1 -29 11 -15 9 13 10 12 5 -2 -3 -10
-1 -20 5 -23 5 -4 7 -11 4 -16 -4 -5 1 -9 10 -9 9 0 13 5 10 10 -3 6 -1 10 5
10 7 0 9 -8 5 -20 -5 -15 -3 -18 8 -14 9 3 16 -3 20 -16 4 -14 10 -19 18 -14
7 4 10 3 6 -3 -7 -11 36 -53 54 -53 6 0 8 -7 5 -16 -5 -12 -2 -15 9 -10 10 3
13 2 10 -5 -4 -5 -1 -17 7 -26 10 -13 10 -17 1 -20 -7 -3 -13 -9 -13 -14 0
-11 41 8 53 25 6 7 7 6 4 -4 -2 -8 0 -23 5 -33 7 -13 13 -15 28 -7 16 8 18 8
14 -5 -3 -8 -10 -12 -15 -9 -5 3 -9 0 -9 -5 0 -6 -8 -3 -18 7 -11 9 -17 20
-15 24 2 4 -3 5 -11 2 -18 -7 -12 -24 8 -24 7 0 19 -11 26 -25 7 -13 18 -21
23 -18 6 4 8 0 4 -10 -3 -9 -3 -16 1 -16 20 3 25 -2 12 -12 -13 -9 -13 -10 1
-6 10 3 27 -5 42 -21 32 -34 54 -52 63 -52 3 0 1 6 -5 13 -6 8 -8 16 -5 19 3
3 -3 5 -13 5 -10 -1 -17 4 -15 11 1 8 -2 11 -9 6 -8 -5 -9 -3 -4 6 5 9 4 11
-4 6 -7 -5 -10 -2 -9 6 2 7 -3 12 -10 10 -8 -1 -11 2 -6 9 5 8 3 9 -6 4 -8 -5
-11 -4 -6 3 4 6 14 8 24 5 15 -6 16 -5 2 12 -14 17 -14 17 8 4 12 -8 18 -15
12 -17 -15 -5 -12 -22 3 -18 6 1 9 1 4 -1 -4 -3 -4 -9 -1 -14 3 -6 12 -5 22 3
12 9 11 6 -2 -10 -21 -24 -16 -28 16 -11 15 8 19 8 13 0 -9 -15 14 -43 29 -34
6 3 8 3 4 -1 -8 -10 23 -47 34 -40 5 3 8 2 7 -3 -3 -18 2 -33 11 -33 5 0 7 8
4 18 -3 9 4 3 15 -14 13 -19 19 -38 15 -49 -5 -12 -9 -13 -14 -5 -5 9 -9 9
-14 1 -4 -6 -2 -12 3 -12 26 -3 30 -4 37 -11 4 -5 1 -8 -7 -8 -11 0 -11 -2 1
-10 12 -8 12 -10 1 -10 -11 0 -11 -3 -1 -15 7 -8 19 -15 26 -15 8 0 11 -7 8
-17 -5 -17 -5 -17 6 0 11 17 30 15 30 -4 0 -6 -5 -7 -12 -3 -7 4 -8 3 -4 -5 4
-6 12 -9 17 -5 14 8 39 -15 33 -31 -3 -7 -1 -16 5 -20 7 -4 8 1 4 12 -6 16 -5
16 10 4 15 -12 18 -10 27 10 10 23 10 23 5 -3 -6 -33 36 -91 50 -68 6 9 4 11
-5 5 -9 -6 -11 -4 -5 5 5 9 4 11 -3 6 -8 -5 -10 -1 -6 11 4 13 3 15 -4 5 -8
-11 -10 -11 -15 1 -6 15 0 27 13 27 4 0 12 -11 18 -24 6 -13 20 -27 31 -31 12
-3 21 -13 21 -20 0 -8 8 -12 20 -10 12 2 28 -7 44 -26 14 -16 28 -29 33 -29 4
0 9 132 11 293 l3 292 -172 165 c-94 91 -209 201 -254 245 -45 44 -187 181
-315 305 -128 124 -271 262 -317 306 -46 45 -168 163 -271 262 -103 100 -230
223 -283 274 -53 51 -203 197 -334 323 -131 127 -275 265 -318 308 -44 42 -81
77 -83 77 -2 0 -7 -15 -12 -32z m311 -853 c-3 -9 -8 -14 -10 -11 -3 3 -2 9 2
15 9 16 15 13 8 -4z m39 -41 c7 1 10 1 6 -1 -14 -8 -8 -25 7 -20 8 4 17 1 21
-5 4 -6 3 -8 -3 -5 -6 4 -13 0 -16 -8 -4 -9 -1 -12 9 -8 7 3 14 0 14 -7 0 -6
5 -8 12 -4 6 4 8 3 5 -4 -11 -17 -50 -5 -53 16 0 4 -4 15 -9 25 -6 15 -10 16
-16 5 -7 -10 -9 -11 -9 0 0 7 -5 10 -10 7 -6 -4 -5 5 2 20 11 25 12 26 20 6 4
-11 13 -19 20 -17z m416 -401 c-2 -12 2 -17 12 -15 8 2 12 0 8 -3 -4 -4 -3
-16 3 -27 8 -14 14 -16 23 -9 9 8 13 6 13 -6 0 -18 -32 -54 -41 -46 -3 3 2 11
11 18 15 11 14 14 -10 30 -15 9 -24 22 -20 28 4 6 0 8 -10 4 -14 -5 -15 -3 -5
18 13 29 20 32 16 8z m-693 -462 c-6 -5 -25 10 -25 20 0 5 6 4 14 -3 8 -7 12
-15 11 -17z m1285 -115 c0 -8 -4 -17 -8 -20 -4 -2 -8 4 -8 15 0 10 4 19 8 19
4 0 8 -6 8 -14z m21 -63 c13 -16 12 -17 -3 -4 -10 7 -18 15 -18 17 0 8 8 3 21
-13z m309 -268 c0 -5 -5 -3 -10 5 -5 8 -10 20 -10 25 0 6 5 3 10 -5 5 -8 10
-19 10 -25z m83 -102 c-4 -11 -8 -12 -13 -3 -4 7 -14 17 -21 22 -11 8 -10 9 4
4 10 -3 17 0 17 7 0 8 3 7 9 -2 5 -8 7 -21 4 -28z m-949 -185 c-5 -8 -2 -9 11
-4 14 5 15 3 7 -6 -11 -14 2 -30 28 -36 25 -6 41 -27 34 -46 -5 -13 -9 -15
-15 -5 -6 10 -11 10 -22 0 -10 -8 -17 -9 -22 -1 -3 5 1 10 11 10 13 0 10 5
-10 21 -14 11 -24 25 -21 30 4 5 2 9 -2 9 -5 0 -18 7 -29 15 -14 11 -15 14 -3
9 10 -3 20 -1 24 5 3 6 8 11 11 11 3 0 2 -5 -2 -12z m1196 -38 c-12 -7 -12
-10 -1 -10 7 0 11 -6 8 -14 -4 -10 -1 -13 9 -9 7 3 14 0 14 -7 0 -6 -4 -9 -9
-5 -5 3 -13 0 -17 -6 -4 -8 -3 -9 4 -5 7 4 12 1 12 -6 0 -9 3 -9 8 -2 10 15
45 27 36 12 -4 -6 1 -17 11 -25 14 -9 15 -13 4 -13 -12 0 -12 -2 1 -10 22 -14
30 -12 23 7 -6 15 -5 16 9 3 9 -8 12 -17 8 -20 -4 -3 -6 -13 -4 -23 2 -13 -9
-7 -37 20 -21 21 -43 39 -49 39 -5 1 -17 2 -25 3 -11 1 -14 9 -11 26 3 13 0
27 -5 31 -12 7 -2 24 14 24 7 0 6 -4 -3 -10z m-1050 -80 c0 -5 -2 -10 -4 -10
-3 0 -8 5 -11 10 -3 6 -1 10 4 10 6 0 11 -4 11 -10z m48 -57 c-2 -13 3 -17 17
-15 17 2 16 0 -5 -13 -23 -15 -23 -15 -2 -10 21 6 30 -4 16 -18 -12 -12 -43
13 -37 29 3 8 2 14 -3 13 -19 -3 -34 1 -34 10 0 6 9 8 20 6 11 -2 20 0 20 6 0
5 2 9 5 9 3 0 5 -8 3 -17z m177 -172 c-6 -5 -25 10 -25 20 0 5 6 4 14 -3 8 -7
12 -15 11 -17z m-2 -55 c4 -9 0 -13 -11 -11 -9 2 -19 4 -22 4 -4 1 21 20 26
21 1 0 4 -6 7 -14z m97 -97 c0 -6 -4 -7 -10 -4 -5 3 -10 11 -10 16 0 6 5 7 10
4 6 -3 10 -11 10 -16z m197 -131 c-3 -8 -6 -5 -6 6 -1 11 2 17 5 13 3 -3 4
-12 1 -19z m223 -228 c0 -5 0 -13 -1 -16 0 -4 5 -11 13 -15 8 -5 9 -9 2 -9 -6
0 -17 7 -24 15 -7 8 -17 12 -24 8 -6 -4 -5 1 3 10 15 19 31 22 31 7z m-1290
-1924 c0 -3 -4 -8 -10 -11 -5 -3 -10 -1 -10 4 0 6 5 11 10 11 6 0 10 -2 10 -4z"/>
<path d="M5513 3608 c11 -10 23 -16 27 -13 5 3 11 0 13 -5 3 -6 4 -5 3 2 -2 7
-9 12 -15 11 -6 -2 -11 2 -11 9 0 6 -3 8 -7 5 -3 -4 -11 -3 -18 1 -6 4 -2 -1
8 -10z"/>
<path d="M6720 3566 c0 -2 8 -10 18 -17 15 -13 16 -12 3 4 -13 16 -21 21 -21
13z"/>
<path d="M2759 6163 c-13 -17 -13 -17 6 -3 11 8 22 16 24 17 2 2 0 3 -6 3 -6
0 -17 -8 -24 -17z"/>
<path d="M3910 6148 c0 -4 4 -8 9 -8 6 0 12 4 15 8 3 5 -1 9 -9 9 -8 0 -15 -4
-15 -9z"/>
<path d="M2700 6120 c-6 -11 -8 -20 -6 -20 3 0 10 9 16 20 6 11 8 20 6 20 -3
0 -10 -9 -16 -20z"/>
<path d="M3880 6125 c-11 -13 -10 -14 4 -9 9 3 16 10 16 15 0 13 -6 11 -20 -6z"/>
<path d="M4633 6099 c-2 -23 3 -25 10 -4 4 8 3 16 -1 19 -4 3 -9 -4 -9 -15z"/>
<path d="M2649 6063 c-6 -7 -8 -13 -3 -13 4 0 -1 -7 -12 -16 -18 -14 -18 -15
3 -4 13 6 22 16 20 22 -1 7 3 12 10 13 17 0 25 12 8 12 -8 0 -20 -6 -26 -14z"/>
<path d="M3815 6070 c-3 -5 -1 -10 4 -10 6 0 11 5 11 10 0 6 -2 10 -4 10 -3 0
-8 -4 -11 -10z"/>
<path d="M4636 6057 c3 -10 9 -15 12 -12 3 3 0 11 -7 18 -10 9 -11 8 -5 -6z"/>
<path d="M4630 6015 c-7 -9 -11 -17 -9 -20 3 -2 10 5 17 15 14 24 10 26 -8 5z"/>
<path d="M4630 5970 c0 -5 5 -10 10 -10 6 0 10 5 10 10 0 6 -4 10 -10 10 -5 0
-10 -4 -10 -10z"/>
<path d="M4620 5943 c0 -6 8 -17 18 -24 16 -13 16 -13 2 6 -8 11 -16 22 -17
24 -2 2 -3 0 -3 -6z"/>
<path d="M2476 5917 c3 -10 9 -15 12 -12 3 3 0 11 -7 18 -10 9 -11 8 -5 -6z"/>
<path d="M4627 5892 c1 -8 3 -16 3 -18 0 -2 4 -4 8 -4 5 0 9 7 9 15 0 8 -4 12
-8 9 -4 -2 -9 -1 -12 3 -2 5 -2 2 0 -5z"/>
<path d="M2443 5878 c3 -9 1 -18 -6 -21 -8 -2 -8 -5 0 -10 15 -9 23 17 11 34
-8 11 -9 11 -5 -3z"/>
<path d="M4633 5846 c-9 -11 -9 -15 0 -19 7 -3 14 3 14 14 2 22 2 22 -14 5z"/>
<path d="M2397 5823 c-10 -9 -9 -23 1 -23 5 0 9 7 9 15 0 17 -1 18 -10 8z"/>
<path d="M4621 5815 c-1 -6 6 -20 14 -32 13 -19 13 -23 1 -30 -12 -7 -12 -10
2 -23 14 -13 15 -12 9 3 -3 9 -2 19 4 23 6 4 6 11 -1 19 -7 8 -8 20 -4 26 4 7
3 9 -4 5 -5 -3 -13 0 -15 6 -3 7 -6 8 -6 3z"/>
<path d="M2366 5792 c-3 -5 1 -9 9 -9 8 0 12 4 9 9 -3 4 -7 8 -9 8 -2 0 -6 -4
-9 -8z"/>
<path d="M2306 5727 c3 -10 9 -15 12 -12 3 3 0 11 -7 18 -10 9 -11 8 -5 -6z"/>
<path d="M2270 5710 c0 -6 7 -10 15 -10 8 0 15 2 15 4 0 2 -7 6 -15 10 -8 3
-15 1 -15 -4z"/>
<path d="M4630 5701 c0 -6 4 -12 8 -15 5 -3 9 1 9 9 0 8 -4 15 -9 15 -4 0 -8
-4 -8 -9z"/>
<path d="M2900 5656 c0 -2 8 -10 18 -17 15 -13 16 -12 3 4 -13 16 -21 21 -21
13z"/>
<path d="M4633 5653 c9 -2 14 -9 11 -15 -4 -7 -2 -8 5 -4 15 10 4 26 -17 25
-15 -1 -15 -2 1 -6z"/>
<path d="M4619 5627 c6 -8 9 -16 6 -19 -3 -2 2 -5 10 -5 19 0 19 5 1 23 -18
18 -32 19 -17 1z"/>
<path d="M2915 5601 c-3 -5 -2 -12 3 -15 5 -3 9 1 9 9 0 17 -3 19 -12 6z"/>
<path d="M4630 5575 c0 -8 4 -15 8 -15 5 0 9 7 9 15 0 8 -4 15 -9 15 -4 0 -8
-7 -8 -15z"/>
<path d="M2946 5547 c4 -10 15 -22 25 -28 15 -8 17 -6 13 6 -4 9 -9 13 -12 11
-3 -3 -11 2 -19 12 -12 16 -13 16 -7 -1z"/>
<path d="M4620 5543 c0 -6 8 -17 18 -24 16 -13 16 -13 2 6 -8 11 -16 22 -17
24 -2 2 -3 0 -3 -6z"/>
<path d="M4624 5498 c3 -15 26 -23 26 -8 0 6 -4 9 -9 6 -5 -4 -12 -1 -14 4 -3
6 -4 5 -3 -2z"/>
<path d="M4620 5463 c0 -6 8 -17 18 -24 16 -13 16 -13 2 6 -8 11 -16 22 -17
24 -2 2 -3 0 -3 -6z"/>
<path d="M4624 5418 c3 -15 26 -23 26 -8 0 6 -4 9 -9 6 -5 -4 -12 -1 -14 4 -3
6 -4 5 -3 -2z"/>
<path d="M4620 5383 c0 -6 8 -17 18 -24 16 -13 16 -13 2 6 -8 11 -16 22 -17
24 -2 2 -3 0 -3 -6z"/>
<path d="M4624 5338 c3 -15 26 -23 26 -8 0 6 -4 9 -9 6 -5 -4 -12 -1 -14 4 -3
6 -4 5 -3 -2z"/>
<path d="M3226 5285 c9 -14 20 -25 25 -25 5 0 -1 11 -13 25 -12 14 -23 25 -25
25 -2 0 4 -11 13 -25z"/>
<path d="M4620 5303 c0 -6 8 -17 18 -24 16 -13 16 -13 2 6 -8 11 -16 22 -17
24 -2 2 -3 0 -3 -6z"/>
<path d="M4627 5252 c1 -8 3 -16 3 -18 0 -2 4 -4 8 -4 5 0 9 7 9 15 0 8 -4 12
-8 9 -4 -2 -9 -1 -12 3 -2 5 -2 2 0 -5z"/>
<path d="M4633 5206 c-9 -11 -9 -15 0 -19 7 -3 14 3 14 14 2 22 2 22 -14 5z"/>
<path d="M3244 5198 c-4 -7 -4 -10 1 -6 4 4 15 2 24 -5 14 -11 14 -10 2 6 -16
20 -18 21 -27 5z"/>
<path d="M4621 5175 c-1 -6 6 -20 14 -32 13 -19 13 -23 1 -30 -12 -7 -12 -10
2 -23 14 -13 15 -12 9 3 -3 9 -2 19 4 23 6 4 6 11 -1 19 -7 8 -8 20 -4 26 4 7
3 9 -4 5 -5 -3 -13 0 -15 6 -3 7 -6 8 -6 3z"/>
<path d="M5066 5171 c-4 -5 -2 -12 3 -15 5 -4 12 -2 15 3 4 5 2 12 -3 15 -5 4
-12 2 -15 -3z"/>
<path d="M5035 5160 c3 -5 8 -10 11 -10 2 0 4 5 4 10 0 6 -5 10 -11 10 -5 0
-7 -4 -4 -10z"/>
<path d="M5100 5101 c0 -6 4 -13 10 -16 6 -3 7 1 4 9 -7 18 -14 21 -14 7z"/>
<path d="M3420 5096 c0 -2 7 -7 16 -10 8 -3 12 -2 9 4 -6 10 -25 14 -25 6z"/>
<path d="M2285 5069 c-4 -6 -4 -13 -1 -16 3 -4 6 -1 6 6 0 7 5 9 12 5 7 -4 8
-3 4 4 -9 15 -13 15 -21 1z"/>
<path d="M3380 5060 c0 -5 5 -10 11 -10 5 0 7 5 4 10 -3 6 -8 10 -11 10 -2 0
-4 -4 -4 -10z"/>
<path d="M4630 5061 c0 -6 4 -12 8 -15 5 -3 9 1 9 9 0 8 -4 15 -9 15 -4 0 -8
-4 -8 -9z"/>
<path d="M3470 5045 c0 -8 4 -15 10 -15 5 0 7 7 4 15 -4 8 -8 15 -10 15 -2 0
-4 -7 -4 -15z"/>
<path d="M5119 5043 c-13 -16 -12 -17 4 -4 9 7 17 15 17 17 0 8 -8 3 -21 -13z"/>
<path d="M2265 5028 c1 -13 7 -23 14 -23 7 0 18 -7 24 -15 7 -9 18 -15 26 -15
17 0 28 25 11 25 -7 0 -10 6 -7 14 6 16 -19 43 -30 32 -3 -3 -1 -6 6 -6 7 0 9
-4 6 -10 -4 -6 -15 -4 -29 5 -21 14 -23 14 -21 -7z m54 -6 c13 10 14 10 4 -2
-10 -11 -9 -16 5 -27 15 -13 15 -13 -5 -3 -12 5 -25 15 -28 20 -4 6 -11 7 -17
4 -7 -5 -8 -2 -3 5 5 9 10 10 18 2 7 -7 15 -7 26 1z"/>
<path d="M2358 5002 c4 -10 7 -12 10 -4 2 7 9 9 15 5 7 -3 8 -2 4 2 -14 16
-36 14 -29 -3z"/>
<path d="M4633 5013 c9 -2 14 -9 11 -15 -4 -7 -2 -8 5 -4 15 10 4 26 -17 25
-15 -1 -15 -2 1 -6z"/>
<path d="M4619 4987 c6 -8 9 -16 6 -19 -3 -2 2 -5 10 -5 19 0 19 5 1 23 -18
18 -32 19 -17 1z"/>
<path d="M5264 4969 c-2 -4 2 -14 10 -22 11 -11 12 -17 3 -26 -8 -8 -8 -14 2
-23 10 -11 11 -10 6 3 -3 9 2 22 11 30 15 12 17 12 12 -1 -3 -8 -2 -24 3 -35
7 -18 8 -18 8 -2 1 10 5 16 11 12 5 -3 6 -13 3 -22 -5 -13 -3 -13 14 3 22 22
22 24 -4 28 -10 2 -17 11 -17 20 1 8 -2 14 -6 11 -9 -6 -32 19 -25 27 3 2 -2
5 -10 5 -9 0 -18 -4 -21 -8z m27 -16 c13 -16 12 -17 -3 -4 -10 7 -18 15 -18
17 0 8 8 3 21 -13z"/>
<path d="M4630 4935 c0 -8 4 -15 8 -15 5 0 9 7 9 15 0 8 -4 15 -9 15 -4 0 -8
-7 -8 -15z"/>
<path d="M2472 4911 c-11 -7 -11 -9 0 -14 9 -3 15 1 15 9 0 8 -1 14 -1 14 -1
0 -7 -4 -14 -9z"/>
<path d="M4620 4903 c0 -6 8 -17 18 -24 16 -13 16 -13 2 6 -8 11 -16 22 -17
24 -2 2 -3 0 -3 -6z"/>
<path d="M2430 4896 c0 -2 6 -9 14 -15 11 -9 16 -9 22 0 4 8 3 9 -4 5 -7 -4
-12 -2 -12 3 0 6 -4 11 -10 11 -5 0 -10 -2 -10 -4z"/>
<path d="M3623 4894 c4 -7 0 -15 -9 -18 -12 -5 -14 -10 -5 -20 6 -7 7 -17 3
-22 -4 -4 1 -3 10 5 9 7 14 19 11 27 -4 10 0 12 13 8 20 -8 19 -6 -10 16 -11
8 -17 10 -13 4z"/>
<path d="M5350 4875 c0 -8 4 -15 8 -15 5 0 9 7 9 15 0 8 -4 15 -9 15 -4 0 -8
-7 -8 -15z"/>
<path d="M4624 4858 c3 -15 26 -23 26 -8 0 6 -4 9 -9 6 -5 -4 -12 -1 -14 4 -3
6 -4 5 -3 -2z"/>
<path d="M3653 4840 c5 -29 46 -70 65 -63 11 5 14 2 9 -11 -4 -10 -1 -19 8
-22 8 -4 12 -11 8 -18 -3 -6 -3 -8 2 -4 4 4 14 3 21 -3 8 -7 14 -6 19 2 9 13
-14 31 -29 22 -5 -4 -7 1 -3 10 4 11 -5 22 -30 37 -28 16 -33 23 -24 34 9 11
9 16 1 21 -6 4 -14 4 -17 1 -4 -3 -1 -6 6 -6 7 0 9 -5 6 -10 -5 -8 -11 -7 -21
1 -7 6 -11 15 -8 20 3 5 0 9 -5 9 -6 0 -10 -9 -8 -20z m37 -35 c13 -14 21 -25
18 -25 -2 0 -15 11 -28 25 -13 14 -21 25 -18 25 2 0 15 -11 28 -25z"/>
<path d="M4620 4823 c0 -6 8 -17 18 -24 16 -13 16 -13 2 6 -8 11 -16 22 -17
24 -2 2 -3 0 -3 -6z"/>
<path d="M3735 4811 c-3 -5 -2 -12 3 -15 5 -3 9 1 9 9 0 17 -3 19 -12 6z"/>
<path d="M2613 4795 c0 -8 4 -12 9 -9 5 3 6 10 3 15 -9 13 -12 11 -12 -6z"/>
<path d="M3770 4789 c0 -5 5 -7 10 -4 6 3 10 8 10 11 0 2 -4 4 -10 4 -5 0 -10
-5 -10 -11z"/>
<path d="M4624 4778 c3 -15 26 -23 26 -8 0 6 -4 9 -9 6 -5 -4 -12 -1 -14 4 -3
6 -4 5 -3 -2z"/>
<path d="M4620 4743 c0 -6 8 -17 18 -24 16 -13 16 -13 2 6 -8 11 -16 22 -17
24 -2 2 -3 0 -3 -6z"/>
<path d="M2650 4736 c0 -2 7 -7 16 -10 8 -3 12 -2 9 4 -6 10 -25 14 -25 6z"/>
<path d="M2677 4689 c4 -13 8 -18 11 -10 2 7 -1 18 -6 23 -8 8 -9 4 -5 -13z"/>
<path d="M4624 4698 c3 -15 26 -23 26 -8 0 6 -4 9 -9 6 -5 -4 -12 -1 -14 4 -3
6 -4 5 -3 -2z"/>
<path d="M3855 4690 c3 -5 8 -10 11 -10 2 0 4 5 4 10 0 6 -5 10 -11 10 -5 0
-7 -4 -4 -10z"/>
<path d="M5516 4673 c-6 -14 -5 -15 5 -6 7 7 10 15 7 18 -3 3 -9 -2 -12 -12z"/>
<path d="M2730 4669 c0 -5 5 -7 10 -4 6 3 10 8 10 11 0 2 -4 4 -10 4 -5 0 -10
-5 -10 -11z"/>
<path d="M4620 4663 c0 -6 8 -17 18 -24 16 -13 16 -13 2 6 -8 11 -16 22 -17
24 -2 2 -3 0 -3 -6z"/>
<path d="M2666 4652 c-3 -5 1 -9 9 -9 8 0 15 4 15 9 0 4 -4 8 -9 8 -6 0 -12
-4 -15 -8z"/>
<path d="M3915 4641 c-3 -5 -2 -12 3 -15 5 -3 9 1 9 9 0 17 -3 19 -12 6z"/>
<path d="M4627 4612 c1 -8 3 -16 3 -18 0 -2 4 -4 8 -4 5 0 9 7 9 15 0 8 -4 12
-8 9 -4 -2 -9 -1 -12 3 -2 5 -2 2 0 -5z"/>
<path d="M2761 4604 c0 -11 3 -14 6 -6 3 7 2 16 -1 19 -3 4 -6 -2 -5 -13z"/>
<path d="M3952 4604 c-7 -8 -8 -14 -3 -14 10 0 25 19 20 25 -2 1 -10 -3 -17
-11z"/>
<path d="M5596 4607 c3 -10 9 -15 12 -12 3 3 0 11 -7 18 -10 9 -11 8 -5 -6z"/>
<path d="M2788 4583 c7 -3 16 -2 19 1 4 3 -2 6 -13 5 -11 0 -14 -3 -6 -6z"/>
<path d="M2777 4550 c22 -20 27 -30 18 -32 -10 -2 -6 -7 10 -15 14 -6 23 -7
20 -3 -3 5 2 13 11 18 18 10 11 32 -9 32 -8 0 -8 -3 2 -9 8 -5 9 -11 3 -15 -5
-3 -17 6 -26 19 -9 14 -21 23 -26 20 -6 -4 -10 -1 -10 4 0 6 -6 11 -12 11 -7
0 1 -14 19 -30z"/>
<path d="M4606 4571 c5 -6 9 -7 35 -10 5 0 7 -6 3 -13 -4 -7 -3 -8 4 -4 18 11
3 32 -23 32 -13 0 -22 -2 -19 -5z"/>
<path d="M5670 4570 c0 -5 5 -10 10 -10 6 0 10 5 10 10 0 6 -4 10 -10 10 -5 0
-10 -4 -10 -10z"/>
<path d="M5638 4563 c7 -3 16 -2 19 1 4 3 -2 6 -13 5 -11 0 -14 -3 -6 -6z"/>
<path d="M5725 4523 c2 -13 -1 -23 -6 -23 -15 0 -2 -16 33 -42 17 -12 29 -17
25 -11 -4 6 0 13 8 16 9 4 12 1 8 -9 -3 -7 0 -14 7 -14 6 0 8 -5 4 -12 -4 -7
2 -4 14 6 22 19 30 32 14 22 -11 -6 -64 48 -57 57 3 4 0 3 -6 -2 -8 -7 -18 -3
-30 12 l-18 22 4 -22z m58 -43 c9 -10 9 -11 0 -6 -7 4 -13 2 -13 -4 0 -8 -6
-8 -20 0 -11 6 -20 15 -20 20 0 14 38 7 53 -10z"/>
<path d="M4628 4523 c7 -3 16 -2 19 1 4 3 -2 6 -13 5 -11 0 -14 -3 -6 -6z"/>
<path d="M4637 4493 c-10 -9 -9 -23 1 -23 5 0 9 7 9 15 0 17 -1 18 -10 8z"/>
<path d="M2910 4473 c0 -6 8 -17 18 -24 16 -13 16 -13 2 6 -8 11 -16 22 -17
24 -2 2 -3 0 -3 -6z"/>
<path d="M4646 4415 c14 -10 21 -10 27 -2 5 7 6 3 2 -9 -4 -14 0 -24 10 -27 9
-4 12 -13 8 -24 -5 -15 -3 -15 10 2 14 18 13 22 -4 44 -11 13 -31 26 -45 27
-25 3 -25 2 -8 -11z m55 -32 c13 -16 12 -17 -3 -4 -17 13 -22 21 -14 21 2 0
10 -8 17 -17z"/>
<path d="M4150 4400 c0 -5 5 -10 11 -10 5 0 7 5 4 10 -3 6 -8 10 -11 10 -2 0
-4 -4 -4 -10z"/>
<path d="M4630 4406 c0 -2 8 -10 18 -17 15 -13 16 -12 3 4 -13 16 -21 21 -21
13z"/>
<path d="M2926 4385 c4 -8 11 -15 16 -15 6 0 5 6 -2 15 -7 8 -14 15 -16 15 -2
0 -1 -7 2 -15z"/>
<path d="M4187 4369 c7 -7 15 -10 18 -7 3 3 -2 9 -12 12 -14 6 -15 5 -6 -5z"/>
<path d="M5833 4365 c0 -8 4 -12 9 -9 5 3 6 10 3 15 -9 13 -12 11 -12 -6z"/>
<path d="M3027 4345 c3 -8 9 -12 14 -9 12 7 11 11 -5 17 -10 4 -13 1 -9 -8z"/>
<path d="M3060 4330 c-9 -6 -10 -10 -3 -10 6 0 15 5 18 10 8 12 4 12 -15 0z"/>
<path d="M5870 4336 c0 -2 7 -6 15 -10 8 -3 15 -1 15 4 0 6 -7 10 -15 10 -8 0
-15 -2 -15 -4z"/>
<path d="M4280 4310 c-9 -6 -10 -10 -3 -10 6 0 15 5 18 10 8 12 4 12 -15 0z"/>
<path d="M3035 4301 c-3 -5 -1 -12 5 -16 5 -3 10 1 10 9 0 18 -6 21 -15 7z"/>
<path d="M3068 4303 c7 -3 16 -2 19 1 4 3 -2 6 -13 5 -11 0 -14 -3 -6 -6z"/>
<path d="M5970 4280 c0 -5 5 -10 11 -10 5 0 7 5 4 10 -3 6 -8 10 -11 10 -2 0
-4 -4 -4 -10z"/>
<path d="M4730 4269 c0 -5 5 -7 10 -4 6 3 10 8 10 11 0 2 -4 4 -10 4 -5 0 -10
-5 -10 -11z"/>
<path d="M4307 4249 c7 -7 15 -10 18 -7 3 3 -2 9 -12 12 -14 6 -15 5 -6 -5z"/>
<path d="M5955 4250 c-3 -6 1 -7 9 -4 18 7 21 14 7 14 -6 0 -13 -4 -16 -10z"/>
<path d="M4910 4206 c0 -2 7 -7 16 -10 8 -3 12 -2 9 4 -6 10 -25 14 -25 6z"/>
<path d="M4910 4149 c0 -5 4 -8 9 -5 13 8 34 -21 25 -36 -4 -7 1 -5 12 4 14
14 15 21 6 30 -15 15 -52 21 -52 7z"/>
<path d="M3275 4121 c-3 -5 -2 -12 3 -15 5 -3 9 1 9 9 0 17 -3 19 -12 6z"/>
<path d="M4990 4116 c0 -2 8 -10 18 -17 15 -13 16 -12 3 4 -13 16 -21 21 -21
13z"/>
<path d="M6112 4106 c7 -8 15 -12 17 -11 5 6 -10 25 -20 25 -5 0 -4 -6 3 -14z"/>
<path d="M6155 4090 c-19 -8 -19 -9 3 -9 12 -1 22 4 22 9 0 6 -1 10 -2 9 -2 0
-12 -4 -23 -9z"/>
<path d="M6189 4086 c0 -6 -2 -19 -4 -29 -2 -13 1 -17 10 -13 8 3 17 1 20 -4
4 -6 1 -10 -5 -10 -7 0 -6 -5 2 -14 8 -8 15 -10 19 -4 4 7 9 7 13 0 3 -6 2
-14 -4 -17 -8 -5 -7 -11 1 -21 9 -11 15 -11 25 -3 10 8 17 7 29 -5 9 -9 19
-16 23 -16 4 0 -5 11 -20 25 -15 13 -24 25 -20 27 4 2 -14 24 -40 49 -27 26
-48 41 -49 35z m47 -48 c27 -29 31 -39 25 -64 0 -3 -6 -2 -11 1 -8 5 -8 11 0
20 12 14 -11 40 -25 27 -5 -4 -5 -2 -1 5 3 6 -4 19 -16 27 -12 9 -18 16 -12
16 5 0 24 -15 40 -32z"/>
<path d="M4955 4081 c-3 -5 -2 -12 3 -15 5 -3 9 1 9 9 0 17 -3 19 -12 6z"/>
<path d="M4485 4070 c-3 -5 -1 -10 4 -10 6 0 11 5 11 10 0 6 -2 10 -4 10 -3 0
-8 -4 -11 -10z"/>
<path d="M3346 4048 c3 -5 10 -6 15 -3 13 9 11 12 -6 12 -8 0 -12 -4 -9 -9z"/>
<path d="M4505 4050 c-3 -5 -13 -7 -23 -4 -14 5 -14 4 -2 -4 9 -7 19 -7 26 -2
6 6 15 6 19 2 5 -4 5 -1 1 6 -9 15 -13 15 -21 2z"/>
<path d="M3296 4029 c5 -9 31 -6 40 4 4 4 -4 6 -19 5 -14 -1 -24 -5 -21 -9z"/>
<path d="M3384 4008 c10 -16 23 -28 30 -28 6 0 5 4 -3 9 -8 5 -10 14 -6 22 5
8 5 11 0 7 -4 -4 -15 -2 -23 5 -11 9 -11 4 2 -15z"/>
<path d="M6186 3988 c3 -5 10 -6 15 -3 13 9 11 12 -6 12 -8 0 -12 -4 -9 -9z"/>
<path d="M5082 3977 c10 -8 15 -17 11 -20 -3 -4 -1 -7 5 -7 20 0 13 19 -10 30
-21 10 -21 10 -6 -3z"/>
<path d="M6270 3950 c0 -6 7 -10 15 -10 8 0 15 2 15 4 0 2 -7 6 -15 10 -8 3
-15 1 -15 -4z"/>
<path d="M5133 3920 c2 -8 10 -14 17 -12 8 2 10 -3 6 -15 -6 -14 -5 -16 5 -5
10 9 10 15 1 24 -7 7 -12 8 -12 3 0 -6 -5 -3 -11 5 -9 13 -10 13 -6 0z"/>
<path d="M3505 3910 c-3 -6 1 -7 9 -4 18 7 21 14 7 14 -6 0 -13 -4 -16 -10z"/>
<path d="M3516 3863 c-8 -26 -7 -38 4 -38 5 0 23 -19 41 -43 17 -23 35 -40 39
-37 5 3 14 -4 20 -15 11 -21 30 -27 30 -9 0 5 -4 7 -10 4 -5 -3 -10 1 -10 10
0 9 5 13 10 10 6 -3 10 -1 10 5 0 7 -8 9 -19 5 -11 -3 -23 0 -27 6 -4 7 -3 9
4 5 6 -3 14 -1 18 5 5 8 3 9 -6 4 -10 -6 -12 -4 -6 10 5 15 4 16 -9 5 -8 -7
-16 -10 -16 -6 -1 3 -3 11 -4 16 -1 6 -3 13 -4 16 0 4 -7 2 -14 -4 -9 -8 -16
-6 -25 8 -7 12 -8 21 -2 25 6 3 10 1 10 -4 0 -6 5 -11 11 -11 8 0 8 5 -1 15
-10 12 -16 13 -28 3 -13 -11 -14 -10 -8 10 4 12 5 22 2 22 -2 0 -7 -8 -10 -17z
m62 -60 c-1 -5 4 -19 11 -33 l12 -25 -20 25 c-10 13 -17 28 -15 32 7 10 15 10
12 1z"/>
<path d="M5240 3865 c-11 -13 -10 -18 9 -31 12 -9 19 -20 16 -25 -4 -5 -2 -9
3 -9 19 0 20 29 2 45 -11 10 -17 22 -14 26 9 15 -3 10 -16 -6z m25 -25 c10
-11 16 -20 13 -20 -3 0 -13 9 -23 20 -10 11 -16 20 -13 20 3 0 13 -9 23 -20z"/>
<path d="M6349 3871 c8 -5 10 -14 6 -22 -5 -8 -5 -11 0 -7 4 4 15 2 23 -5 11
-9 11 -4 -2 16 -10 15 -23 27 -30 27 -6 0 -5 -4 3 -9z"/>
<path d="M4585 3800 c-5 -8 10 -50 18 -50 2 0 3 9 3 19 0 11 -4 17 -8 15 -4
-3 -8 -1 -8 5 0 5 6 12 13 14 9 4 9 6 0 6 -6 1 -15 -3 -18 -9z"/>
<path d="M6429 3792 c7 -5 10 -15 7 -21 -4 -6 -2 -11 4 -11 17 0 8 33 -10 37
-12 4 -13 3 -1 -5z"/>
<path d="M5256 3763 c-6 -14 -5 -15 5 -6 7 7 10 15 7 18 -3 3 -9 -2 -12 -12z"/>
<path d="M6527 3761 c6 -7 9 -20 5 -29 -4 -12 -1 -14 13 -9 15 6 16 5 5 -8
-10 -12 -10 -15 1 -15 17 0 42 -37 34 -50 -4 -6 -2 -10 3 -10 15 0 23 30 13
48 -5 9 -27 33 -48 52 -21 19 -33 29 -26 21z m63 -72 c15 -28 5 -23 -15 7 -9
15 -12 23 -6 20 6 -4 16 -16 21 -27z"/>
<path d="M3695 3730 c-3 -5 -1 -10 4 -10 6 0 11 5 11 10 0 6 -2 10 -4 10 -3 0
-8 -4 -11 -10z"/>
<path d="M5320 3729 c0 -5 5 -7 10 -4 6 3 10 8 10 11 0 2 -4 4 -10 4 -5 0 -10
-5 -10 -11z"/>
<path d="M6490 3730 c8 -5 20 -10 25 -10 6 0 3 5 -5 10 -8 5 -19 10 -25 10 -5
0 -3 -5 5 -10z"/>
<path d="M6622 3668 c-18 -18 -15 -27 8 -25 20 1 29 17 9 17 -5 0 -7 5 -4 10
8 14 2 13 -13 -2z"/>
<path d="M3754 3655 c-7 -17 4 -37 16 -30 5 3 10 0 13 -7 2 -7 3 -6 2 2 0 8
-7 14 -14 12 -9 -2 -12 4 -8 18 6 23 -1 27 -9 5z"/>
<path d="M5440 3610 c-9 -6 -10 -10 -3 -10 6 0 15 5 18 10 8 12 4 12 -15 0z"/>
<path d="M3816 3588 c3 -5 10 -6 15 -3 13 9 11 12 -6 12 -8 0 -12 -4 -9 -9z"/>
<path d="M3841 3531 c-9 -6 -10 -11 -2 -15 6 -4 8 -13 5 -19 -4 -7 -4 -9 1 -5
4 4 16 -4 27 -17 19 -24 46 -26 32 -3 -5 7 -1 9 9 5 11 -4 14 -2 11 7 -3 7
-13 13 -22 13 -41 0 -44 3 -21 24 l24 20 -27 -17 c-16 -9 -28 -12 -28 -6 0 6
6 13 13 15 6 3 8 6 2 6 -5 0 -16 -3 -24 -8z m56 -58 c0 -9 -4 -10 -14 -2 -7 6
-13 12 -13 14 0 1 6 2 13 2 8 0 14 -6 14 -14z"/>
<path d="M5545 3530 c-3 -4 3 -14 12 -21 12 -10 14 -10 9 -1 -7 12 4 16 34 12
8 -1 12 1 8 5 -9 10 -58 14 -63 5z"/>
<path d="M5580 3505 c0 -5 5 -17 10 -25 5 -8 10 -10 10 -5 0 6 -5 17 -10 25
-5 8 -10 11 -10 5z"/>
<path d="M6734 3485 c3 -23 12 -26 13 -5 1 11 -2 20 -7 20 -4 0 -7 -7 -6 -15z"/>
<path d="M5613 3445 c0 -8 4 -12 9 -9 5 3 6 10 3 15 -9 13 -12 11 -12 -6z"/>
<path d="M6790 3451 c0 -5 5 -13 10 -16 6 -3 10 -2 10 4 0 5 -4 13 -10 16 -5
3 -10 2 -10 -4z"/>
<path d="M5627 3409 c7 -7 15 -10 18 -7 3 3 -2 9 -12 12 -14 6 -15 5 -6 -5z"/>
<path d="M5670 3411 c0 -5 5 -13 10 -16 6 -3 10 -2 10 4 0 5 -4 13 -10 16 -5
3 -10 2 -10 -4z"/>
<path d="M6820 3405 c7 -8 20 -14 29 -14 13 1 13 2 -1 6 -10 2 -18 9 -18 14 0
5 -5 9 -11 9 -8 0 -8 -5 1 -15z"/>
<path d="M6873 3396 c0 -14 3 -23 8 -20 5 3 9 2 9 -3 0 -4 4 -14 9 -22 7 -11
14 -10 37 5 l29 18 -20 -23 -20 -24 23 12 c38 20 19 49 -31 46 -19 -1 -26 2
-25 13 2 8 -2 17 -8 19 -7 2 -11 -7 -11 -21z m49 -25 c8 11 9 11 6 1 -4 -16
-22 -18 -25 -2 -1 7 0 6 4 -1 4 -8 8 -7 15 2z"/>
<path d="M4589 3408 c-7 -14 -2 -55 6 -55 6 0 11 8 11 18 0 10 -5 15 -10 12
-5 -4 -7 1 -3 10 5 13 1 25 -4 15z"/>
<path d="M4035 3370 c3 -5 8 -10 11 -10 2 0 4 5 4 10 0 6 -5 10 -11 10 -5 0
-7 -4 -4 -10z"/>
<path d="M6866 3352 c-3 -5 1 -9 9 -9 8 0 12 4 9 9 -3 4 -7 8 -9 8 -2 0 -6 -4
-9 -8z"/>
<path d="M4094 3326 c1 -8 5 -18 8 -22 4 -3 5 1 4 10 -1 8 -5 18 -8 22 -4 3
-5 -1 -4 -10z"/>
<path d="M6910 3326 c0 -3 9 -10 20 -16 11 -6 20 -8 20 -6 0 3 -9 10 -20 16
-11 6 -20 8 -20 6z"/>
<path d="M5730 3309 c0 -5 5 -7 10 -4 6 3 10 8 10 11 0 2 -4 4 -10 4 -5 0 -10
-5 -10 -11z"/>
<path d="M4589 3248 c-7 -14 -2 -55 6 -55 6 0 11 8 11 18 0 10 -5 15 -10 12
-5 -4 -7 1 -3 10 5 13 1 25 -4 15z"/>
<path d="M5887 3189 c7 -7 15 -10 18 -7 3 3 -2 9 -12 12 -14 6 -15 5 -6 -5z"/>
<path d="M4213 3170 c-13 -20 -5 -31 32 -43 20 -7 20 -7 1 8 -11 8 -24 15 -29
15 -4 0 -5 5 -2 10 5 8 12 7 23 -2 16 -12 16 -11 2 7 -8 11 -15 21 -15 22 0 1
-6 -6 -12 -17z"/>
<path d="M4155 3170 c3 -5 8 -10 11 -10 2 0 4 5 4 10 0 6 -5 10 -11 10 -5 0
-7 -4 -4 -10z"/>
<path d="M6006 3124 c1 -6 -3 -18 -9 -25 -7 -7 -2 -5 11 5 24 21 28 16 12 -15
-7 -13 -7 -19 0 -19 5 0 10 8 10 18 0 14 2 15 10 2 5 -9 5 -19 -1 -26 -10 -12
26 -52 38 -41 3 4 1 7 -6 7 -7 0 -9 5 -5 12 5 8 11 6 20 -6 7 -10 18 -15 24
-11 8 5 7 12 -4 24 -9 10 -13 21 -9 26 5 4 3 5 -4 1 -6 -3 -14 -2 -18 4 -4 6
-10 8 -14 5 -5 -2 -13 7 -20 21 -6 14 -15 23 -20 20 -5 -4 -11 -3 -14 1 -2 5
-3 3 -1 -3z m85 -71 c19 -22 20 -24 2 -10 -14 12 -23 15 -28 7 -3 -5 -11 -8
-16 -4 -6 4 -6 11 2 20 14 18 11 19 40 -13z"/>
<path d="M4589 3088 c-7 -14 -2 -55 6 -55 6 0 11 8 11 18 0 10 -5 15 -10 12
-5 -4 -7 1 -3 10 5 13 1 25 -4 15z"/>
<path d="M5425 2990 c-3 -6 1 -7 9 -4 18 7 21 14 7 14 -6 0 -13 -4 -16 -10z"/>
<path d="M6190 2930 c0 -11 2 -20 4 -20 2 0 6 9 9 20 3 11 1 20 -4 20 -5 0 -9
-9 -9 -20z"/>
<path d="M4589 2928 c-7 -14 -2 -55 6 -55 6 0 11 8 11 18 0 10 -5 15 -10 12
-5 -4 -7 1 -3 10 5 13 1 25 -4 15z"/>
<path d="M6212 2886 c7 -8 15 -12 17 -11 5 6 -10 25 -20 25 -5 0 -4 -6 3 -14z"/>
<path d="M4595 2850 c3 -5 8 -10 11 -10 2 0 4 5 4 10 0 6 -5 10 -11 10 -5 0
-7 -4 -4 -10z"/>
<path d="M6270 2826 c0 -2 7 -9 15 -16 9 -7 15 -8 15 -2 0 5 -7 12 -15 16 -8
3 -15 4 -15 2z"/>
<path d="M5854 2761 c4 -7 -2 -15 -16 -20 -15 -7 -17 -10 -7 -10 23 -1 44 25
28 35 -8 4 -9 3 -5 -5z"/>
<path d="M6935 2690 c-3 -5 -1 -10 4 -10 6 0 11 5 11 10 0 6 -2 10 -4 10 -3 0
-8 -4 -11 -10z"/>
<path d="M4585 2680 c-5 -8 10 -50 18 -50 2 0 3 9 3 19 0 11 -4 17 -8 15 -4
-3 -8 -1 -8 5 0 5 6 12 13 14 9 4 9 6 0 6 -6 1 -15 -3 -18 -9z"/>
<path d="M5750 2660 c-9 -16 -8 -18 5 -14 8 3 13 10 10 14 -3 5 1 11 7 13 10
4 10 6 1 6 -7 1 -17 -8 -23 -19z"/>
<path d="M6910 2660 c-8 -5 -10 -10 -5 -10 6 0 17 5 25 10 8 5 11 10 5 10 -5
0 -17 -5 -25 -10z"/>
<path d="M6894 2625 c-4 -8 -10 -12 -15 -9 -5 3 -9 0 -9 -5 0 -18 19 -12 30 9
6 11 8 20 5 20 -3 0 -8 -7 -11 -15z"/>
<path d="M5675 2590 c-3 -5 -1 -10 4 -10 6 0 11 5 11 10 0 6 -2 10 -4 10 -3 0
-8 -4 -11 -10z"/>
<path d="M5597 2505 c-4 -8 -3 -16 1 -19 4 -3 9 4 9 15 2 23 -3 25 -10 4z"/>
<path d="M6723 2445 c0 -8 4 -12 9 -9 5 3 6 10 3 15 -9 13 -12 11 -12 -6z"/>
<path d="M5550 2436 c0 -2 7 -7 16 -10 8 -3 12 -2 9 4 -6 10 -25 14 -25 6z"/>
<path d="M6656 2392 c-2 -4 4 -8 14 -8 10 0 16 4 14 8 -3 4 -9 8 -14 8 -5 0
-11 -4 -14 -8z"/>
<path d="M5435 2360 c-3 -5 -1 -10 4 -10 6 0 11 5 11 10 0 6 -2 10 -4 10 -3 0
-8 -4 -11 -10z"/>
<path d="M4580 2335 c0 -8 4 -15 10 -15 5 0 7 7 4 15 -4 8 -8 15 -10 15 -2 0
-4 -7 -4 -15z"/>
<path d="M5410 2336 c0 -2 7 -7 16 -10 8 -3 12 -2 9 4 -6 10 -25 14 -25 6z"/>
<path d="M6570 2309 c0 -5 5 -7 10 -4 6 3 10 8 10 11 0 2 -4 4 -10 4 -5 0 -10
-5 -10 -11z"/>
<path d="M5375 2290 c-3 -6 1 -7 9 -4 18 7 21 14 7 14 -6 0 -13 -4 -16 -10z"/>
<path d="M6530 2269 c0 -5 5 -7 10 -4 6 3 10 8 10 11 0 2 -4 4 -10 4 -5 0 -10
-5 -10 -11z"/>
<path d="M6495 2249 c-11 -16 -1 -19 13 -3 7 8 8 14 3 14 -5 0 -13 -5 -16 -11z"/>
<path d="M5313 2215 c0 -8 4 -12 9 -9 5 3 6 10 3 15 -9 13 -12 11 -12 -6z"/>
<path d="M6461 2223 c-1 -17 16 -25 25 -12 4 7 3 9 -4 5 -5 -3 -13 0 -15 6 -4
9 -6 10 -6 1z"/>
<path d="M6393 2153 c0 -9 4 -10 14 -2 7 6 13 12 13 14 0 1 -6 2 -13 2 -8 0
-14 -6 -14 -14z"/>
<path d="M6330 2105 c-11 -13 -10 -14 4 -9 9 3 16 10 16 15 0 13 -6 11 -20 -6z"/>
<path d="M6296 2053 c-6 -14 -5 -15 5 -6 7 7 10 15 7 18 -3 3 -9 -2 -12 -12z"/>
<path d="M5110 2029 c0 -5 5 -7 10 -4 6 3 10 8 10 11 0 2 -4 4 -10 4 -5 0 -10
-5 -10 -11z"/>
<path d="M6230 1989 c0 -5 5 -7 10 -4 6 3 10 8 10 11 0 2 -4 4 -10 4 -5 0 -10
-5 -10 -11z"/>
<path d="M6196 1952 c-3 -5 1 -9 9 -9 8 0 12 4 9 9 -3 4 -7 8 -9 8 -2 0 -6 -4
-9 -8z"/>
<path d="M6166 1923 c-4 -5 -13 -8 -19 -8 -7 0 -13 -8 -15 -17 -2 -10 1 -18 7
-18 6 0 7 7 4 17 -4 10 -2 14 4 10 6 -4 16 0 23 8 13 15 9 21 -4 8z"/>
<path d="M6095 1830 c3 -5 8 -10 11 -10 2 0 4 5 4 10 0 6 -5 10 -11 10 -5 0
-7 -4 -4 -10z"/>
<path d="M5999 1763 c-13 -16 -12 -17 4 -4 16 13 21 21 13 21 -2 0 -10 -8 -17
-17z"/>
<path d="M5896 1685 c-3 -8 0 -17 6 -21 6 -4 8 -3 4 4 -3 6 2 12 11 14 16 3
17 4 1 10 -10 4 -18 1 -22 -7z"/>
<path d="M5850 1620 c0 -5 -5 -9 -11 -7 -6 1 -14 -5 -16 -13 -4 -12 -3 -12 5
-2 5 8 13 13 18 12 5 -1 10 3 12 9 2 6 1 11 -2 11 -3 0 -6 -4 -6 -10z"/>
<path d="M5785 1550 c-3 -6 1 -7 9 -4 18 7 21 14 7 14 -6 0 -13 -4 -16 -10z"/>
<path d="M5670 1450 c-9 -6 -10 -10 -3 -10 6 0 15 5 18 10 8 12 4 12 -15 0z"/>
<path d="M5580 1376 c0 -2 8 -10 18 -17 15 -13 16 -12 3 4 -13 16 -21 21 -21
13z"/>
<path d="M5550 1329 c0 -5 5 -7 10 -4 6 3 10 8 10 11 0 2 -4 4 -10 4 -5 0 -10
-5 -10 -11z"/>
<path d="M5510 1290 c0 -5 5 -10 10 -10 6 0 10 5 10 10 0 6 -4 10 -10 10 -5 0
-10 -4 -10 -10z"/>
<path d="M5456 1243 c-6 -14 -5 -15 5 -6 7 7 10 15 7 18 -3 3 -9 -2 -12 -12z"/>
<path d="M5427 1216 c-4 -10 -1 -13 8 -9 8 3 12 9 9 14 -7 12 -11 11 -17 -5z"/>
<path d="M5355 1150 c-3 -5 -1 -10 4 -10 6 0 11 5 11 10 0 6 -2 10 -4 10 -3 0
-8 -4 -11 -10z"/>
<path d="M5273 1062 c-8 -14 -8 -19 1 -19 7 0 13 9 13 19 2 23 1 23 -14 0z"/>
<path d="M5150 951 c0 -6 4 -13 10 -16 6 -3 7 1 4 9 -7 18 -14 21 -14 7z"/>
<path d="M5112 896 c7 -8 15 -12 17 -11 5 6 -10 25 -20 25 -5 0 -4 -6 3 -14z"/>
<path d="M5036 852 c-3 -5 1 -9 9 -9 8 0 12 4 9 9 -3 4 -7 8 -9 8 -2 0 -6 -4
-9 -8z"/>
<path d="M4993 775 c0 -8 4 -12 9 -9 5 3 6 10 3 15 -9 13 -12 11 -12 -6z"/>
</g>
</svg>
